<svg width="4991" height="7207" viewBox="0 0 4991 7207" fill="none" xmlns="http://www.w3.org/2000/svg">
<path d="M3476.35 3198.75C3479.79 3116.63 3483.52 3034.51 3486.39 2952.39C3492.06 2788.94 3496.79 2625.41 3502.67 2461.96C3504.18 2420.37 3507.62 2378.7 3511.71 2337.24C3518.88 2267.17 3544.84 2236.47 3614.12 2232.39C3716.53 2226.36 3819.31 2226.15 3922.01 2224.35C3979.38 2223.28 4036.75 2223.64 4094.13 2223.99C4295.73 2225.29 4497.47 2224.35 4699 2229.88C4764.98 2231.67 4831.75 2246.16 4895.79 2263.37C4927.06 2271.76 4962.34 2293.99 4978.7 2320.75C4994.11 2345.99 4991.46 2385.29 4989.38 2417.78C4980.63 2558.14 4967.87 2698.35 4958.97 2838.71C4951.8 2949.45 4948.22 3060.4 4941.04 3171.21C4937.1 3232.75 4931.43 3294.43 4921.9 3355.32C4920.52 3370 4914.89 3383.97 4905.69 3395.5C4896.49 3407.03 4884.13 3415.62 4870.11 3420.22C4805.57 3445.4 4744.68 3481.9 4682.07 3513.46C4642.7 3533.18 4602.39 3550.97 4563.38 3571.34C4461.82 3624.41 4357.69 3667.66 4242.87 3685.45C4201.13 3691.9 4162.69 3718.58 4122.1 3734.36C4082.73 3749.64 4041.56 3760.68 4002.76 3777.39C3852.15 3841.94 3692.29 3876.22 3533.01 3911.15C3477.21 3923.34 3419.98 3929.3 3363.18 3936.68C3328.9 3941.2 3300.07 3932.31 3281.21 3899.39C3223.83 3798.98 3165.88 3699.15 3107.94 3599.24C3099.76 3584.89 3092.88 3563.38 3080.9 3559.72C3053.07 3550.9 3022.52 3549.82 2992.97 3548.25C2988.31 3548.25 2979.56 3560.94 2978.63 3568.69C2966.72 3648.87 2953.24 3728.48 2977.63 3809.74C3006.66 3908.79 3012.74 4013.16 2995.41 4114.91C2992.52 4132.72 2986.88 4149.97 2978.7 4166.05C2951.86 4220.14 2936.08 4279.05 2932.3 4339.32C2925.77 4426.32 2904.47 4512.17 2895.08 4599.1C2883.32 4706.68 2877.94 4815.19 2868.47 4923.13C2855.71 5070.37 2837.2 5217.19 2829.96 5364.71C2826.73 5442.1 2833.21 5519.59 2849.25 5595.37C2885.11 5769.58 2920.97 5943.21 2937.54 6120.87C2945.14 6204.42 2967.01 6286.68 2983.08 6369.45C2988.53 6398.14 2967.8 6413.7 2926.49 6403.3C2925.06 6427.26 2919.32 6450.49 2923.19 6472.3C2929.65 6512.17 2944.71 6550.76 2949.87 6590.71C2954.14 6628.5 2954.71 6666.62 2951.59 6704.53C2945.42 6798.48 2941.84 6893.01 2927.35 6985.82C2916.95 7052.52 2891.92 7116.71 2832.25 7160.53C2786.64 7194.09 2735.22 7205.64 2681.14 7206.5C2629.79 7207.27 2578.43 7205.16 2527.31 7200.19C2507.44 7198.43 2488.71 7190.1 2474.09 7176.52C2391.4 7089.45 2382.08 6975.7 2434.15 6865.47C2470.01 6790.45 2492.38 6709.41 2520.71 6630.94C2532.47 6598.43 2544 6565.85 2555.28 6533.19C2558.48 6525.66 2560.14 6517.56 2560.16 6509.38C2557.65 6482.41 2553.63 6455.59 2549.83 6426.25C2493.89 6412.91 2480.05 6361.7 2481.19 6314.44C2484.06 6197.89 2443.97 6091.1 2415.14 5982.16C2387.46 5877.45 2357.77 5771.44 2313.09 5673.33C2264.39 5566.75 2278.52 5460.25 2285.48 5352.74C2294.3 5215.75 2274.93 5081.2 2260.59 4945.94C2254.35 4886.7 2249.98 4827.24 2244.67 4767.43H2114.36C2110.06 4789.52 2101.95 4812.39 2101.66 4835.42C2100.59 4922.84 2075.77 5004.82 2047.45 5086.08C2021.99 5159.09 1994.23 5231.24 1970.21 5304.68C1939.73 5397.49 1933.63 5493.81 1939.3 5590.56C1943.1 5656.04 1949.41 5721.45 1957.8 5786.5C1970.64 5886.91 1988.21 5986.17 1999.97 6086.44C2014.31 6205.71 2023.64 6325.56 2036.26 6445.04C2039.2 6472.73 2029.52 6485.92 2000.97 6483.77C1993.8 6520.71 1980.46 6556.14 2023.35 6579.81C2028.8 6582.82 2031.67 6594.15 2032.38 6601.75C2045.44 6746.56 2057.06 6891.51 2071.26 7036.24C2075.13 7075.47 2069.18 7096.05 2024.14 7105.52C1876.26 7136.65 1731.1 7181.62 1578.84 7188.64C1496.72 7192.45 1414.46 7195.82 1332.42 7194.02C1316.35 7193.59 1294.34 7170.71 1286.23 7153.07C1239.54 7052.02 1262.71 6961.15 1339.66 6885.48C1377.24 6848.47 1424.94 6821.86 1464.95 6786.94C1491.02 6762.8 1514.7 6736.22 1535.67 6707.54C1557.9 6678.18 1578.49 6647.6 1597.34 6615.95C1604.09 6604.98 1610.47 6587.27 1606.38 6577.37C1596.91 6553.7 1606.88 6515.9 1564 6512.46C1535.31 6510.17 1507.55 6500.84 1479.08 6500.05C1464.28 6499.44 1450.29 6493.13 1440.03 6482.43C1429.78 6471.74 1424.06 6457.49 1424.07 6442.68C1424.07 6399.64 1430.03 6356.04 1432.75 6312.65C1434.29 6297.43 1434.29 6282.1 1432.75 6266.89C1405.79 6078.91 1367.63 5891.79 1354.44 5702.95C1345.04 5568.4 1316.28 5432.49 1342.32 5296.44C1359.1 5208.58 1376.02 5120.65 1396.46 5033.58C1433.61 4875.22 1447.38 4713.42 1471.19 4553.05C1482.45 4477.46 1496.51 4402.44 1507.05 4326.63C1508.53 4307.78 1507.1 4288.82 1502.82 4270.4C1494.29 4222.06 1489.48 4176.3 1507.2 4126.53C1516.95 4099.13 1502.89 4061.48 1494.29 4029.92C1478.22 3971.04 1464.6 3913.81 1468.18 3850.62C1472.84 3768.14 1504.04 3697.42 1544.92 3630.01C1611.9 3519.63 1615.85 3404.09 1600.86 3278.57C1582.64 3125.02 1514.3 2992.05 1444.44 2862.59C1383.55 2749.71 1291.83 2653.46 1213.73 2549.89C1148.39 2463.25 1081.41 2377.76 1017.87 2289.76C913.516 2145.03 813.254 1997.36 707.614 1853.63C615.098 1727.83 565.828 1586.61 532.479 1435.78C492.604 1255.33 453.59 1073.59 367.026 907.489C369.321 834.908 299.54 823.074 261.744 784.919C221.224 743.894 184.576 702.081 156.821 650.442C120.174 582.379 74.7762 519.05 34.9011 452.422C20.1964 426.569 8.70784 399.015 0.691552 370.373C-0.51868 363.67 -0.136494 356.777 1.80689 350.249C3.75027 343.721 7.20043 337.741 11.8795 332.791C20.1988 325.619 37.6261 327.914 50.7504 329.062C57.9222 329.779 65.0941 336.234 81.3741 345.988C67.0305 314.574 54.8385 291.911 45.5152 268.243C38.3434 250.671 31.1716 231.737 31.1716 213.52C31.1716 199.176 40.1365 177.66 50.6073 173.428C63.9468 168.408 84.0994 175.364 98.8732 182.321C107.121 186.194 111.495 198.387 117.161 207.854L130.214 201.399C120.532 177.444 109.774 153.848 101.527 129.678C95.1549 114.336 91.6778 97.9467 91.2712 81.3387C92.9207 47.3431 122.253 31.1342 148.645 52.0766C174.459 72.3666 196.731 96.796 214.554 124.371C247.042 175.221 274.654 229.227 304.345 282.157L315.533 276.347C307.142 258.776 298.679 241.276 290.432 223.633C276.088 192.434 257.226 162.24 248.907 129.392C244.675 112.537 259.091 90.9492 265.043 71.5129C282.758 77.5375 308.074 78.1112 316.824 90.4472C364.731 157.076 408.766 226.716 453.661 295.21C470.372 320.814 485.863 347.136 503.864 376.756C531.403 344.195 525.379 311.347 521.434 279.073C519.498 262.577 514.908 245.866 516.056 229.585C518.064 201.901 537.571 186.553 563.031 182.895C591.001 178.592 600.611 201.04 605.416 222.198C613.09 255.907 617.536 290.333 623.202 324.544C637.545 410.608 655.045 496.171 664.009 582.738C668.241 622.83 654.615 664.643 650.814 705.811C649.164 723.741 647.586 743.536 653.18 760.032C724.396 970.245 841.511 1158.87 934.888 1358.76C964.005 1421.22 987.6 1486.2 1013.78 1550.11C1055.88 1651.16 1126.45 1733.07 1198.74 1811.96C1261.92 1881.1 1333.42 1942.56 1398.69 2009.91C1458.71 2071.87 1538.18 2081.63 1613.84 2081.63C1733.61 2081.63 1845.63 2106.87 1956.08 2147.76C1967.41 2151.56 1978.98 2154.61 1990.72 2156.86C1995.8 2157.38 2000.91 2157.38 2005.99 2156.86C2013.16 2139.29 2023.35 2122.51 2027.51 2104.36C2028.42 2098.15 2028.08 2091.82 2026.51 2085.73C2024.95 2079.65 2022.19 2073.94 2018.4 2068.93C2000.76 2047.13 1980.98 2027.14 1959.38 2009.26C1877.69 1944 1848.36 1854.99 1836.88 1756.09C1831.5 1710.98 1821.1 1666.37 1818.95 1621.18C1816.94 1579.3 1796.22 1547.31 1778.29 1512.31C1751.86 1461.65 1728.09 1409.66 1707.07 1356.53C1689.79 1311.99 1691.58 1267.67 1729.02 1230.23C1734.4 1224.78 1735.33 1210.37 1732.53 1202.12C1716.97 1155.71 1721.13 1111.61 1737.19 1065.85C1745.46 1039.83 1747.91 1012.31 1744.37 985.234C1728.52 854.703 1728.37 725.319 1771.4 599.521C1790.59 544.472 1813.03 490.611 1838.6 438.221C1847.64 419.358 1868.22 405.803 1884.14 390.455C1890.03 384.861 1899.78 382.422 1904.15 376.111C1929.76 339.175 1965.04 324.257 2010.58 329.134C2011.96 321.711 2012.54 314.16 2012.3 306.613C1999.32 218.038 2038.12 152.27 2101.88 96.0414C2146.99 54.8178 2201.54 25.3122 2260.73 10.12C2370.75 -16.4166 2473.02 10.12 2560.23 79.3305C2621.33 127.885 2690.61 152.988 2763.05 173.069C2821.5 189.207 2881.02 201.758 2940.19 215.6C3052.57 242.065 3127.37 316.009 3184.53 411.11C3224.39 475.176 3250.66 546.753 3261.7 621.395C3276.98 732.921 3290.39 844.519 3272.74 956.618C3255.1 1068.72 3233.44 1179.96 3214.29 1291.77C3205.84 1335 3199.83 1378.68 3196.29 1422.59C3191.85 1501.48 3155.13 1570.69 3131.17 1643.63C3129.24 1649.51 3127.16 1655.39 3124.93 1661.2C3103.42 1716.07 3082.33 1769.5 3018 1779.33C3008.18 1780.9 2993.76 1793.31 2992.33 1802.42C2967.3 1960.56 2867.18 2063.63 2741.75 2148.69C2727.98 2158.08 2714.64 2168.27 2701.3 2178.31C2671.1 2201.04 2671.03 2221.34 2705.89 2238.98C2746.05 2259.5 2788.72 2275.27 2830.75 2291.91C2886.04 2313.93 2942.2 2334.09 2997.42 2356.46C3042.53 2374.75 3085.85 2397.85 3131.75 2413.84C3205.62 2439.8 3250.23 2492.73 3272.24 2564.09C3303.44 2665.43 3329.19 2768.5 3359.95 2869.98C3392.15 2976.13 3427.44 3081.34 3461.58 3186.92C3463.26 3191.13 3465.28 3195.21 3467.6 3199.11L3476.35 3198.75ZM1726.44 6723.89C1703.56 6685.81 1668.56 6677.49 1636.57 6711.41L1727.51 6723.03C1728.84 6727.69 1729.33 6732.55 1728.95 6737.38C1725.72 6749.28 1721.2 6760.9 1717.19 6772.59C1706.93 6768.29 1696.82 6763.41 1686.35 6759.9C1668.78 6753.02 1650.67 6747.65 1632.2 6743.83C1623.88 6742.54 1614.2 6750.14 1605.09 6753.73C1610.33 6761.83 1614.13 6771.8 1621.23 6777.76C1633.92 6788.3 1650.99 6794.32 1661.68 6806.44C1667.48 6813.04 1667.48 6829.54 1663.54 6838.72C1660.24 6845.89 1647.55 6850.77 1638.15 6853.71C1635.57 6854.5 1625.46 6843.95 1626.03 6839.36C1630.69 6803.5 1606.24 6809.53 1587.59 6807.45C1577.98 6824.52 1571.6 6840.51 1560.98 6852.92C1553.81 6861.45 1540.69 6864.97 1530.22 6870.78C1530.85 6858.37 1532.22 6846.02 1534.3 6833.77C1536.03 6825.95 1546.07 6816.84 1543.99 6812.25C1540.69 6805.08 1525.77 6794.4 1523.33 6796.12C1484.82 6822.72 1447.53 6851.13 1409.3 6879.67C1434.69 6897.74 1463.88 6909.72 1479.73 6931.53C1513.87 6978.43 1558.62 6982.37 1607.1 6972.33C1706.21 6951.97 1805.18 6930.23 1903.29 6905.56C1933.56 6897.89 1962.46 6881.03 1988.92 6863.68C1999.39 6856.86 2007.36 6836.64 2006.21 6823.37C2000.9 6762.84 1992.29 6702.59 1984.12 6642.28C1982.42 6630.51 1979.14 6619.02 1974.37 6608.14C1966.76 6590.42 1957.15 6582.75 1933.27 6586.62C1876.94 6595.18 1820.12 6600.09 1763.16 6601.32C1686.13 6603.19 1626.89 6632.52 1587.45 6700.08C1599.14 6697.43 1612.05 6692.26 1616.13 6683.23C1627.75 6656.76 1650.34 6653.25 1672.58 6656.26C1693.64 6660 1714 6667.02 1732.89 6677.06C1742.43 6681.65 1748.67 6693.05 1756.34 6701.37L1726.44 6723.89ZM3184.53 1200.68C3190.2 1193.51 3199.59 1186.91 3201.03 1179.17C3218.1 1084.14 3234.73 988.964 3249.51 893.504C3252.3 875.574 3247 856.424 3245.2 837.777L3237.46 836.773L3196.65 948.37L3181.66 943.78C3184.53 931.946 3187.62 920.112 3190.34 907.92C3197.87 874.354 3208.77 841.004 3211.86 807.009C3216.37 758.454 3211.86 708.823 3217.52 660.555C3223.76 610.35 3195 569.685 3187.11 523.21C3166.67 403.149 3080.9 324.83 2973.39 277.208C2898.74 244.073 2817.62 225.282 2739.31 200.61C2721.59 195.088 2703.45 191.573 2685.23 187.055L2679.64 197.526C2739.88 252.751 2773.87 323.324 2800.05 398.344C2804.35 410.68 2800.63 425.813 2800.63 439.655L2787.36 442.739C2774.88 427.893 2758.03 414.983 2750.64 397.914C2694.84 268.817 2619.47 157.865 2491.38 89.5148C2433.14 58.4598 2371.68 31.4928 2307.42 48.8492C2252.52 64.8744 2200.8 90.3061 2154.59 124.012C2122.18 147.035 2096.43 184.545 2078 220.835C2045.51 284.954 2066.67 346.777 2098.65 409.102C2164.35 322.033 2190.95 301.521 2232.19 312.279C2163.56 330.998 2130.85 382.566 2114.29 443.887C2069.18 431.049 2072.62 376.684 2023.64 372.166C1977.23 368.293 1940.37 374.174 1925.17 412.545L1971.85 402.36L1974.8 410.537C1967.62 413.836 1960.45 416.92 1953.28 420.434C1936.64 428.61 1915.63 433.129 1904.3 446.038C1879.63 474.727 1852.37 504.132 1839.32 538.343C1779.72 694.407 1751.39 855.205 1783.31 1022.31C1789.19 1053.23 1792.2 1081.13 1771.76 1110.6C1750.25 1141.23 1767.6 1188.56 1792.7 1199.68L1886.51 955.829C1860.62 959.559 1844.34 969.384 1826.77 975.839C1819.6 978.564 1809.63 974.261 1800.95 973.185C1803.03 963.503 1803.1 952.745 1808.12 944.497C1811.92 938.042 1821.96 935.532 1828.2 930.153C1869.01 895.225 1907.09 860.512 1918.57 802.275C1926.03 759.1 1941.11 717.596 1963.11 679.704C2004.06 613.506 2065.81 572.697 2154.52 564.951C2144.98 546.16 2140.18 527.298 2127.98 516.109C2120.81 509.439 2102.38 514.89 2088.97 514.89V525.863C2094.13 527.226 2099.37 528.445 2104.53 529.952C2109.7 531.458 2114.79 533.466 2119.88 535.259C2021.05 532.462 1949.62 572.123 1906.66 663.711C1895.69 628.567 1901.14 599.162 1922.23 574.777C1972.93 516.54 2041.85 497.964 2115 498.753C2138.31 498.753 2149.28 496.171 2159.33 476.376C2193.89 407.811 2257.01 377.617 2326.28 357.822C2336.68 354.881 2350.09 362.34 2362.14 364.994C2257.51 414.051 2189.23 483.692 2195.83 540.925C2265.54 513.241 2325.35 512.237 2378.93 553.978C2438.74 600.238 2502.06 609.633 2573.78 601.672C2675.91 590.269 2771.08 565.812 2842.8 485.413C2849.13 480.022 2856.2 475.577 2863.81 472.216L2869.48 480.034C2831.32 553.332 2767.99 598.445 2691.33 631.221C2814.4 676.262 2933.66 691.18 3047.12 606.477L3054.29 613.65L2982.57 711.19C3011.26 725.534 3038.59 735.862 3062.11 751.497C3094.1 773.013 3131.68 788.218 3144.73 831.035C3167.32 905.553 3151.18 952.96 3084.7 1001.08C3075.66 1007.54 3060.82 1019.59 3062.4 1025.04C3077.67 1076.89 3089 1131.26 3143.58 1160.88C3159.86 1169.77 3171.41 1187.49 3185.32 1201.4C3153.12 1241.56 3121.56 1200.11 3083.7 1198.46C3079.54 1252.18 3075.52 1304.18 3071.58 1354.74L3167.96 1340.9C3173.27 1296 3178.87 1248.31 3184.53 1200.68ZM3101.27 3467.85C3123.93 3460.67 3137.84 3457.59 3150.97 3452.35C3243.05 3415.78 3334.56 3377.84 3427.08 3342.55C3460.43 3329.78 3462.94 3309.34 3453.26 3280.58C3407.93 3146.11 3362.32 3011.7 3317.93 2876.94C3298.2 2816.98 3277.48 2757.02 3263.64 2695.56C3246.85 2620.75 3220.61 2552.47 3165.67 2497.18C3112.6 2443.82 3043.75 2418.29 2975.76 2393.11C2888.05 2360.69 2797.76 2335.02 2708.25 2307.84C2703.01 2306.8 2697.61 2306.85 2692.38 2307.97C2687.15 2309.09 2682.21 2311.27 2677.85 2314.36C2658.05 2329.42 2641.27 2348.64 2621.26 2363.35C2614.73 2368.22 2601.9 2364.49 2591.93 2364.71C2591.93 2355.89 2589.42 2345.2 2593.43 2338.53C2601.1 2325.29 2611.11 2313.55 2622.98 2303.89C2647.58 2284.6 2662.35 2265.66 2635.89 2236.9C2630.14 2229.34 2625.17 2221.22 2621.04 2212.66C2572.49 2234.18 2524.15 2251.89 2479.47 2276.35C2432.14 2302.24 2387.24 2332.72 2392.98 2399.14C2396.07 2433.92 2392.98 2469.21 2392.98 2504.21C2392.98 2627.85 2392.98 2751.57 2391.83 2875.15C2391.26 2930.87 2385.02 2986.6 2385.67 3042.26C2387.03 3167.48 2386.17 3293.28 2395.78 3417.64C2401.59 3493.31 2396.57 3566.17 2389.83 3641.12C2382.65 3723.53 2359.78 3800.99 2336.4 3878.23C2318.68 3936.9 2298.89 3992.98 2307.71 4055.45C2313.59 4096.19 2301.54 4140.59 2338.12 4174.58C2343.42 4179.46 2336.76 4208.94 2334.03 4209.15C2300.32 4212.16 2263.96 4227.87 2242.3 4205.64C2250.34 4178.24 2260.73 4158.37 2261.38 4138.29C2264.54 4029.35 2275.08 3923.13 2305.92 3816.7C2334.26 3718.44 2352.17 3617.48 2359.35 3515.47C2365.59 3425.82 2345.65 3334.66 2345.65 3244.15C2345.65 3053.16 2352.82 2862.24 2353.61 2671.24C2353.28 2618.96 2347.1 2566.88 2335.18 2515.97C2320.4 2450.49 2287.13 2387.52 2282.11 2321.89C2277.8 2265.59 2256.36 2238.41 2211.11 2214.31C2162.55 2188.28 2117.87 2154.57 2071.4 2123.87C2049.88 2145.39 2042.71 2167.41 2070.47 2189.93C2100.16 2214.02 2129.63 2238.27 2160.26 2261.15C2178.19 2274.49 2200.92 2282.66 2215.91 2298.15C2224.59 2307.19 2222.15 2326.84 2224.66 2341.69C2211.89 2341.69 2196.4 2345.63 2186.79 2339.97C2148.07 2317.3 2111.35 2291.34 2073.55 2267.1C2039.63 2245.58 2007.43 2218.61 1970.56 2203.91C1855.55 2156.85 1733.32 2129.82 1609.18 2124.02C1549.44 2121.51 1489.48 2104.51 1431.61 2087.44C1398.68 2078.04 1368.51 2060.82 1343.68 2037.23C1289.32 1982.37 1239.26 1922.91 1189.92 1863.31C1096.68 1751.14 988.461 1650.37 952.171 1499.19C924.99 1386.08 865.393 1285.67 809.238 1184.04C755.091 1086 710.984 982.437 661.284 881.957C655.977 871.199 642.422 857.572 632.597 857.428C612.496 857.45 592.678 862.165 574.721 871.199C546.033 885.543 520.215 904.836 491.744 922.981C493.034 917.458 492.389 907.92 496.333 905.338C539.364 877.51 583.47 850.83 628.509 822.931C601.902 746.835 605.775 744.468 518.422 766.343C494.254 773.084 471.375 783.797 450.721 798.043C393.346 835.553 385.458 874.928 416.296 935.891C432.433 967.806 449.717 1000.01 459.327 1034.08C501.497 1178.23 543.38 1322.61 581.247 1467.99C605.846 1563.38 632.382 1656.61 688.824 1739.16C795.468 1894.44 899.244 2051.72 1006.89 2206.28C1081.77 2313.86 1156.42 2422.16 1239.9 2522.93C1319.51 2619.03 1401.2 2711.77 1468.47 2818.42C1553.45 2953.03 1614.63 3094.04 1636.93 3250.96C1648.12 3329.86 1662.32 3410.54 1637.36 3488.72C1614.84 3558.93 1588.09 3627.72 1557.25 3694.7C1523.26 3767.35 1510.46 3848.12 1520.32 3927.72C1527.49 3985.1 1544.27 4041.61 1558.12 4098.2C1559.64 4102.24 1562.01 4105.91 1565.06 4108.97C1568.12 4112.02 1571.79 4114.39 1575.83 4115.91C1647.55 4140.8 1718.69 4166.98 1791.41 4188.14C1877.47 4213.1 1963.03 4240.56 2050.82 4254.34C2207.66 4278.86 2365.44 4291.56 2525.44 4277.79C2635.1 4268.39 2744.26 4261.15 2849.61 4228.23C2870.3 4221.1 2887.62 4206.56 2898.23 4187.42C2944.85 4090.45 2948.44 3988.47 2930.15 3883.32C2898.23 3698.14 2896.8 3515.25 2981.86 3340.61C2991.18 3321.39 2997.63 3296.15 2993.76 3276.06C2985.28 3235.25 2972.99 3195.31 2957.04 3156.79C2934.31 3099.78 2907.7 3044.26 2883.32 2987.82C2880.45 2981.15 2881.6 2972.76 2879.73 2954.11L2934.02 3001.37L2963.21 2942.13L2977.55 2945.36C2954.17 3038.6 2997.92 3120.36 3020.01 3205.13C3042.39 3292.42 3072.94 3377.69 3101.27 3467.85ZM1570.02 4314.15C1560.98 4340.54 1551.3 4360.05 1547.72 4380.64C1525.56 4507.37 1504.69 4634.31 1483.17 4761.26C1465.81 4864.75 1450.18 4968.6 1430.53 5071.66C1403.2 5214.6 1384.77 5357.9 1396.89 5503.78C1401.67 5559.68 1406.46 5615.55 1411.24 5671.39C1422.5 5797.26 1431.03 5923.42 1446.31 6048.86C1455.85 6127.11 1475.71 6204.13 1490.84 6281.66C1508.49 6280.01 1515.51 6278.87 1522.61 6278.79C1581.06 6278.79 1639.87 6276.28 1693.23 6307.48C1713.03 6319.1 1724 6332.16 1707.57 6357.69C1658.38 6308.13 1597.06 6306.91 1535.95 6308.2C1521.61 6308.2 1500.1 6314.73 1495.58 6324.41C1482.48 6354.75 1473.3 6386.64 1468.25 6419.3C1466.89 6427.47 1483.67 6445.62 1494.14 6447.48C1527.19 6452.28 1560.51 6455.04 1593.9 6455.73C1711.95 6461.97 1829.93 6467.78 1947.26 6444.18C1971.78 6439.23 1984.84 6428.33 1983.11 6404.38C1979.6 6358.19 1975.94 6311.93 1968.77 6266.24C1961.03 6216.9 1944.46 6168.56 1940.08 6119.07C1924.09 5944.36 1912.54 5769.29 1897.05 5594.58C1888.81 5499.62 1891.82 5407.46 1926.39 5316.38C1961.38 5224 1991.29 5129.9 2019.62 5034.94C2048.31 4938.26 2061.72 4839.07 2050.31 4737.8C2048.23 4718.87 2044.43 4700.15 2041.42 4681.29L2047.45 4673.26C2133.51 4762.26 2230.4 4714.28 2327.15 4697.07C2291.72 4758.17 2294.01 4819.64 2301.04 4881.53C2303.77 4905.2 2308.93 4928.65 2311.51 4952.32C2329.2 5111.5 2332.2 5271.97 2320.48 5431.7C2318.9 5453.22 2316.82 5475.6 2321.98 5495.89C2350.67 5610.21 2380.69 5724.25 2412.06 5838C2446.91 5965.59 2483.78 6092.61 2518.13 6220.34C2524.73 6244.94 2532.47 6257.35 2559.15 6247.31C2617.46 6225.15 2676.34 6230.74 2735.22 6243.87C2760.97 6249.6 2765.84 6262.66 2747.84 6283.6C2689.82 6254.27 2630.65 6259.93 2572.06 6273.06C2548.9 6278.22 2519.21 6284.68 2525.09 6319.82C2530.75 6353.24 2559.87 6340.62 2580.31 6344.06C2585.1 6344.29 2589.91 6344.05 2594.65 6343.34C2686.6 6340.62 2778.54 6336.17 2870.41 6336.17C2903.04 6336.17 2910.71 6323.76 2907.41 6296.73C2901.68 6249.39 2893.5 6202.34 2889.05 6154.86C2876.11 6003.81 2851.46 5853.99 2815.33 5706.75C2782.34 5576.15 2765.63 5444.68 2785.85 5310.21C2790.3 5280.8 2792.59 5250.89 2794.1 5221.13C2798.98 5124.88 2801.27 5028.42 2808.01 4932.24C2816.98 4803.64 2829.53 4675.34 2839.78 4546.81C2843.94 4494.17 2845.74 4441.31 2848.82 4385.01C2836.34 4389.96 2827.88 4394.12 2819.06 4396.7C2754.51 4415.92 2689.97 4445.69 2624.2 4451.57C2479.33 4464.4 2333.31 4465.91 2187.73 4470.07C2160.69 4470.86 2149.07 4478.32 2155.74 4504.93C2161.98 4530.1 2170.73 4554.56 2176.82 4579.73C2177.66 4588.53 2177.17 4597.4 2175.39 4606.05C2169.08 4605.19 2161.05 4606.48 2156.67 4603.04C2131.79 4582.96 2107.12 4562.45 2083.81 4540.5C2074.84 4532.11 2069.46 4519.7 2062.72 4509.09L2069.89 4503.56L2143.48 4562.95C2140.25 4522.93 2138.1 4495.1 2135.8 4466.92C2111.92 4464.91 2091.84 4463.33 2071.83 4461.54C1964.97 4451.57 1867 4409.54 1766.38 4376.76C1701.41 4355.68 1635.86 4335.38 1570.02 4314.51V4314.15ZM4327.71 3347.21L4342.49 3340.04C4336.39 3316.23 4332.8 3291.34 4323.55 3268.75C4312.87 3242.64 4319.54 3224.28 4341.2 3210.44C4362.85 3196.6 4382.51 3203.27 4396.2 3224.35C4407.42 3239.83 4417.03 3256.42 4424.89 3273.84C4434.57 3299.16 4440.31 3325.05 4477.75 3316.3C4483.7 3314.94 4495.96 3324.48 4499.26 3331.79C4511.53 3356.61 4532.75 3359.48 4556.28 3359.91C4643.34 3361.34 4730.48 3362.49 4817.62 3364.71C4871.48 3366.15 4871.19 3364.71 4874.99 3310.42C4886.68 3146.32 4900.74 2982.44 4913.29 2818.42C4923.19 2688.96 4935.16 2559.5 4940.61 2429.9C4943.41 2362.2 4934.52 2341.04 4855.27 2320.53C4795.81 2305.14 4735.2 2294.56 4674.04 2288.9C4603.04 2282.37 4531.25 2282.66 4459.75 2281.73C4318.96 2280.22 4178.11 2281.3 4037.33 2278.93C3908.24 2276.78 3779.79 2264.59 3651.7 2288.18C3594.76 2298.58 3558.47 2342.26 3557.39 2400.07C3556.75 2434.14 3553.81 2468.13 3551.87 2502.2C3542.55 2664.07 3532.86 2826.02 3524.4 2987.96C3523.33 3009.05 3531.57 3030.56 3530.5 3051.58C3526.2 3132.12 3519.6 3212.52 3514.43 3292.99C3513.07 3314.94 3524.55 3325.91 3547.06 3325.7C3570.95 3325.7 3594.83 3325.7 3618.78 3326.63C3784.59 3331.22 3950.33 3336.17 4116.15 3340.47C4136 3341.01 4155.48 3334.98 4171.55 3323.3C4187.62 3311.63 4199.38 3294.97 4205 3275.92C4212.89 3251.46 4235.34 3243.5 4255.21 3261.58C4271.49 3276.5 4282.17 3297.44 4296.44 3314.58C4305.7 3326.7 4317.1 3336.81 4327.71 3347.57V3347.21ZM3051.14 1244.36C3049.63 1212.23 3049.56 1179.81 3046.4 1147.97C3035.93 1042.68 3032.06 1039.67 2929.79 1022.74C2917.24 1020.66 2906.05 1010.05 2893.93 1003.38C2901.1 993.411 2905.91 981.29 2914.87 973.831C2988.96 912.223 2974.9 820.636 2885.32 785.492C2877.7 782.075 2869.84 779.199 2861.8 776.886C2812.24 764.98 2775.74 735.36 2741.39 698.423C2723.6 679.417 2693.26 667.512 2666.73 662.563C2626.21 654.889 2582.68 661.846 2543.02 652.02C2488.37 638.608 2436.59 614.08 2382.8 596.652C2343.8 583.89 2304.04 573.59 2263.75 565.812C2237.64 560.863 2218.06 573.414 2209.96 601.672C2205.51 617.164 2196.83 630.934 2176.04 620.176C2136.3 599.664 2103.53 619.1 2074.05 641.692C1995.16 702.296 1961.31 789.724 1934.49 881.598C1910.82 962.571 1882.35 1042.25 1859.33 1123.44C1847.85 1161.93 1841.32 1201.72 1839.89 1241.85C1838.96 1296.5 1845.78 1351.23 1849.79 1405.95C1857.9 1517.62 1865 1629.43 1875.04 1740.96C1885.36 1856.35 1942.52 1947.08 2030.45 2019.66C2040.85 2028.34 2058.49 2030.2 2065.81 2040.32C2125.69 2121.94 2212.76 2165.9 2300.61 2205.99C2338.43 2223.29 2380.38 2229.51 2421.6 2223.92C2497.33 2210.94 2574.14 2192.8 2644.78 2163.1C2815.33 2091.38 2917.31 1960.49 2949.23 1776.67C2959.27 1719.3 2973.75 1662.92 2984.15 1605.69C3006.53 1485.63 3056.59 1370.3 3051.42 1244.72L3051.14 1244.36ZM449.86 614.223L430.496 604.111C445.987 570.474 457.677 534.326 478.189 504.06C498.7 473.794 508.31 432.34 489.377 402.217C433.915 313.236 378.023 224.517 321.7 136.062C310.441 120.683 298.174 106.068 284.981 92.312L270.637 101.277C288.137 194.514 352.898 266.665 390.765 350.793L346.371 391.387C307.859 328.56 270.494 267.884 233.416 207.065C211.112 170.487 190.385 132.906 166.216 97.7627C161.196 90.5906 143.697 91.523 132.007 88.7976C129.712 100.488 122.971 113.541 125.911 123.797C158.543 236.184 231.121 323.324 305.205 409.963L253.712 456.438C246.175 439.401 237.674 422.807 228.252 406.735C191.676 352.443 155.817 297.648 116.516 245.149C102.172 225.641 79.5093 212.014 60.6475 195.661C41.212 223.274 54.6235 249.38 69.0388 271.398C117.592 345.558 168.798 418.067 222.73 496.745L186.513 544.583C153.594 463.395 102.172 406.162 35.9052 358.109C32.5345 375.824 33.2513 391.818 40.4231 404.01C87.5416 483.835 139.179 561.078 183.07 642.553C220.13 713.974 278.956 771.747 351.033 807.511C368.389 816.26 385.959 831.609 405.825 811.455C449.573 767.06 505.083 747.552 564.465 734.786C579.895 730.823 593.923 722.654 604.986 711.19C643.929 671.241 644.287 618.67 638.191 569.613C624.708 462.032 605.273 355.097 587.487 248.018C585.837 237.833 578.952 228.438 574.506 218.684L561.238 219.186C558.011 238.909 553.636 258.56 551.771 278.427C549.333 303.242 555.787 331.142 546.464 352.586C517.777 418.282 524.303 482.616 539.938 548.958C543.452 564.162 535.921 581.877 533.555 598.445H515.482L501.927 522.206L491.744 520.986L449.86 614.223ZM3145.16 3563.31C3145.16 3568.18 3143.94 3572.27 3145.16 3574.85C3199.74 3676.55 3253.74 3778.54 3310.47 3879.02C3316.49 3889.64 3339.87 3897.88 3353.5 3895.66C3447.23 3880.31 3541.61 3866.54 3633.2 3843.45C3766.88 3809.81 3899.27 3770.51 4031.23 3730.34C4108.69 3706.75 4112.85 3692.4 4061.64 3629.93C4044.64 3609.06 4013.8 3586.9 3989.13 3586.9C3899.83 3586.34 3810.57 3591.13 3721.84 3601.25C3644.74 3609.92 3564.92 3614.59 3498.58 3665.08C3485.75 3673.82 3470.98 3679.28 3455.55 3681C3447.02 3682.15 3437.19 3673.83 3428.01 3669.74C3432.75 3661.42 3435.69 3650.81 3442.36 3645.21C3457.99 3632.44 3476.57 3623.69 3491.99 3610.35C3495.29 3607.33 3497.67 3603.43 3498.84 3599.11C3500.02 3594.79 3499.95 3590.23 3498.63 3585.95C3497.32 3581.67 3494.82 3577.85 3491.42 3574.93C3488.02 3572.01 3483.87 3570.12 3479.44 3569.47C3430.76 3566.46 3381.99 3564.64 3333.13 3564.02C3272.03 3562.37 3210.35 3562.95 3145.3 3562.95L3145.16 3563.31ZM3115.4 3516.33C3123.17 3519 3131.13 3521.11 3139.21 3522.64C3335.52 3531.39 3531.84 3540.02 3728.15 3548.53C3781.73 3550.9 3835.3 3554.05 3888.94 3555.35C3991.14 3557.86 4080.86 3525.15 4153.73 3453.07C4165.13 3441.88 4166.2 3418.57 4167.42 3400.57C4167.42 3397.49 4144.55 3391.75 4131.56 3389.24C4117.57 3386.5 4103.36 3385.02 4089.11 3384.79C3916.98 3382.21 3745.51 3382.79 3573.96 3376.26C3500.23 3373.46 3429.09 3366.65 3366.77 3415.92C3363.59 3417.59 3360.22 3418.84 3356.73 3419.65L3115.4 3516.33ZM2881.09 4270.04C2832.04 4279.87 2785.71 4289.55 2739.24 4298.37C2692.76 4307.19 2648.15 4318.6 2602.11 4322.33C2378.25 4341.68 2152.75 4326.39 1933.56 4277C1816.87 4250.39 1703.34 4210.01 1588.67 4174.73C1561.06 4166.19 1547.5 4174.22 1544.42 4202.12C1543.2 4212.81 1543.27 4223.64 1541.19 4234.11C1537.25 4253.98 1543.2 4264.45 1564.14 4269.97C1595.12 4278.07 1625.24 4289.48 1655.44 4300.24C1725.86 4325.41 1794.35 4359.55 1866.79 4374.83C2015.75 4406.17 2166.57 4427.47 2320.12 4423.09C2492.24 4418.22 2663.65 4413.77 2828.52 4355.17C2879.8 4336.89 2885.75 4331.43 2881.09 4270.04ZM2855.99 6924.21C2904.26 6843.52 2935.81 6687.96 2923.55 6602.11C2918.24 6565.39 2883.6 6523.58 2848.68 6517.98C2774.95 6506.15 2701.23 6505.86 2630.08 6532.33C2615.16 6537.92 2595.66 6546.67 2590.06 6559.08C2568.55 6606.7 2552.63 6656.55 2534.19 6705.39C2523.37 6734.08 2511.53 6762.77 2500.63 6791.45C2492.81 6812.33 2485.78 6833.55 2478.4 6854.64L2485.14 6862.6C2622.91 6803.07 2744.83 6837.86 2855.85 6924.21H2855.99ZM2631.87 6864.68C2581.67 6873.65 2531.47 6880.75 2481.98 6892.8C2469.94 6895.74 2456.74 6913.45 2453.3 6926.86C2446.48 6951.82 2446.84 6978.72 2443.18 7004.68C2435.51 7059.55 2460.54 7091.18 2514.9 7104.16C2584.68 7120.87 2651.17 7112.12 2718.72 7092.39C2778.75 7074.82 2825.23 7044.84 2843.59 6982.66C2846.67 6972.33 2843.59 6954.69 2836.41 6948.02C2779.25 6894.95 2712.34 6865.04 2631.73 6864.68H2631.87ZM4252.7 3299.02C4258.58 3347.57 4269.98 3393.83 4267.83 3439.37C4266.04 3476.95 4203.28 3538.71 4178.97 3536.2C4193.96 3509.59 4210.31 3484.99 4222 3458.45C4235.56 3428.26 4227.95 3399.93 4198.19 3369.3C4224.37 3490.37 4136.51 3523.43 4063.58 3563.88C4088.61 3597.8 4112.42 3631.73 4138.38 3663.86C4144.47 3671.03 4159.89 3678.2 4167.93 3676.12C4252.05 3651.09 4335.6 3624.13 4418.94 3597.23C4420.64 3596.61 4422.2 3595.65 4423.53 3594.42C4424.86 3593.19 4425.93 3591.71 4426.68 3590.06C4444.33 3546.31 4464.12 3503.13 4478.03 3458.16C4485.92 3432.63 4484.77 3404.09 4486.57 3376.76C4486.16 3368.21 4484.76 3359.74 4482.41 3351.51C4473.97 3356.02 4466.18 3361.64 4459.24 3368.23C4454.51 3374.18 4453.86 3383.57 4452.07 3391.54C4436.87 3446.11 4422.95 3501.12 4405.6 3555.06C4402.08 3565.82 4385.52 3572.34 4374.98 3580.88L4367.8 3572.63C4377.84 3541.36 4385.16 3508.94 4398.36 3479.39C4431.78 3403.44 4411.55 3332.51 4381.5 3262.29C4377.77 3253.62 4364.58 3248.88 4355.83 3242.36C4372.32 3291.99 4388.53 3337.24 4374.69 3385.8C4359.48 3439.37 4342.27 3492.37 4323.7 3544.8C4320.61 3553.48 4306.27 3558.14 4297.09 3564.6C4295.01 3553.55 4287.55 3539.85 4291.57 3531.82C4335.32 3444.11 4299.03 3371.6 4252.34 3299.02H4252.7ZM1309.47 7046.71C1363.26 7066.72 1413.6 7069.3 1464.88 7051.23C1476.43 7047.14 1490.84 7051.73 1503.9 7051.23C1565.57 7050.15 1629.12 7057.68 1688.57 7045.42C1786.25 7025.26 1881.35 6992.63 1977.16 6964.16C1990.51 6959.22 2002.71 6951.6 2013.02 6941.78C2017.83 6937.62 2017.68 6927.8 2019.76 6920.26C2013.79 6917.72 2007.39 6916.36 2000.9 6916.25C1946.25 6926.93 1891.53 6937.19 1837.38 6950.03C1758.49 6968.68 1680.97 6992.06 1601.72 7008.05C1578.13 7012.65 1553.83 7012.05 1530.5 7006.27C1507.18 7000.5 1485.39 6989.7 1466.68 6974.63C1436.84 6951.32 1411.17 6922.56 1382.48 6895.16C1337.22 6942 1306.89 6987.75 1309.47 7046.71ZM1325.61 7115.27L1319.22 7125.1C1333.57 7135.79 1347.91 7154.86 1362.83 7155.51C1419.7 7158.09 1476.86 7152.21 1533.8 7154C1649.7 7157.66 1761.87 7138.22 1872.6 7106.52C1920.65 7092.82 1968.84 7079.05 2016.46 7063.49C2043.07 7055.03 2047.59 7031.36 2036.47 7011.57C2030.66 7001.24 2007.79 6995.36 1993.44 6996.14C1972.5 6997.29 1951.63 7005.18 1931.41 7012.21C1743 7077.76 1550.08 7116.71 1349.7 7112.62C1341.63 7113.04 1333.58 7113.93 1325.61 7115.27ZM4784.41 3420.94C4783.69 3418.07 4782.91 3415.2 4782.19 3412.41C4743.32 3410.33 4704.45 3407.31 4665.58 3406.45C4623.91 3405.52 4582.17 3405.38 4540.64 3407.82C4531.54 3408.32 4515.97 3420.73 4515.54 3428.33C4514.15 3468.61 4502.71 3507.91 4482.26 3542.65C4477.46 3550.9 4477.75 3562.16 4473.59 3582.31C4589.99 3540.43 4682.14 3470.57 4784.41 3420.94ZM2997.13 1699C3004.3 1714.56 3008.75 1724.46 3013.2 1734.43C3022.81 1728.55 3035.72 1724.89 3041.38 1716.36C3101.12 1627.64 3139.49 1529.16 3166.39 1426.46C3170.33 1411.4 3159.22 1383.43 3146.81 1375.75C3134.4 1368.08 3107.43 1373.46 3092.3 1382.35C3076.44 1392.69 3064.87 1408.44 3059.74 1426.68C3037.01 1517.9 3017.36 1609.71 2997.13 1699ZM2866.1 6487.5C2866.97 6466.63 2866.68 6448.92 2868.83 6431.56C2872.2 6403.59 2857.86 6388.96 2832.97 6389.89C2766.85 6392.33 2700.58 6396.13 2634.74 6403.02C2606.49 6405.96 2596.52 6435.07 2602.4 6468.71C2608.28 6502.35 2630.58 6493.45 2650.88 6489.73C2721.74 6476.89 2792.31 6453.79 2866.1 6487.5ZM2959.34 977.919C3036.65 981.29 3095.6 893.002 3088.43 842.941C3077.1 764.908 2955.97 687.378 2871.27 742.03C2914.3 767.204 2967.08 775.953 2986.66 829.959C3006.24 883.965 2987.16 929.794 2959.48 977.919H2959.34ZM1948.12 6499.48L1651.28 6528.17C1658.45 6577.08 1659.38 6577.51 1710.87 6565.89C1719.03 6564.27 1727.31 6563.27 1735.62 6562.88C1792.13 6558.65 1848.64 6554.2 1905.3 6550.47C1936.43 6548.61 1955.07 6536.49 1947.97 6499.48H1948.12ZM1814.36 1505.78L1823.47 1502.91C1819.1 1418.93 1815.37 1335.02 1809.92 1251.17C1808.63 1230.52 1787.47 1223.71 1770.18 1237.33C1743.94 1257.92 1728.66 1282.73 1741.5 1318.02C1761.15 1372.96 1779.65 1428.32 1799.37 1482.98C1803.37 1491.19 1808.41 1498.86 1814.36 1505.78ZM2881.59 6987.83C2837.78 7073.03 2777.53 7129.9 2686.59 7158.74C2792.38 7174.23 2869.12 7106.74 2881.59 6987.83ZM3108.51 813.679C3114.89 889.846 3076.31 941.341 3025.03 987.96C3062.9 995.132 3092.23 979.497 3115.11 943.063C3144.15 896.803 3142.65 860.942 3108.51 813.679ZM2977.27 3509.44L2989.17 3518.7L3059.31 3488.36C3046.4 3451.13 3035.29 3418.86 3024.17 3386.66H3010.76C2999.57 3427.54 2988.41 3468.47 2977.27 3509.44ZM2409.19 2281.08C2385.74 2277.14 2370.61 2272.98 2355.4 2272.84C2348.23 2272.84 2335.68 2280.37 2335.46 2284.96C2331.53 2353.24 2339.19 2421.7 2358.13 2487.42C2379.07 2419.72 2323.85 2337.1 2409.19 2281.08ZM2977.84 671.6L2782.27 683.003C2821.64 730.554 2945.64 719.868 2977.84 671.6ZM2164.42 529.306L2242.8 413.405C2198.05 431.192 2161.69 483.692 2164.42 529.306ZM2498.69 7137.08C2497.26 7140.88 2495.75 7144.25 2494.25 7148.34C2516.55 7183.62 2552.91 7165.05 2584.04 7166.12L2498.69 7137.08Z" fill="#201F22"/>
<path d="M3101.27 3467.85C3072.58 3377.69 3042.39 3292.42 3019.72 3205.13C2997.63 3120.36 2953.89 3038.89 2977.27 2945.36L2962.92 2942.13L2933.73 3001.38L2879.44 2954.11C2881.31 2972.76 2880.16 2981.15 2883.03 2987.82C2907.41 3044.26 2934.02 3099.78 2956.75 3156.79C2972.7 3195.31 2984.99 3235.25 2993.47 3276.07C2997.35 3296.22 2990.89 3321.47 2981.57 3340.61C2896.51 3515.25 2897.95 3698.14 2929.86 3883.32C2947.93 3988.47 2944.56 4090.45 2897.95 4187.42C2887.34 4206.56 2870.01 4221.1 2849.32 4228.23C2743.97 4261.15 2634.81 4268.39 2525.16 4277.79C2365.15 4291.56 2207.38 4278.86 2050.53 4254.34C1962.75 4240.57 1876.83 4213.1 1791.13 4188.14C1718.4 4166.62 1647.12 4140.8 1575.54 4115.91C1571.5 4114.39 1567.83 4112.02 1564.78 4108.97C1561.72 4105.91 1559.35 4102.24 1557.83 4098.2C1543.99 4041.61 1527.06 3985.24 1520.03 3927.72C1510.08 3847.78 1522.99 3766.67 1557.25 3693.77C1588.09 3626.79 1614.84 3558 1637.36 3487.79C1662.32 3409.61 1648.12 3328.78 1636.93 3250.03C1614.63 3093.11 1553.45 2952.1 1468.47 2817.48C1401.2 2710.84 1319.51 2618.1 1239.9 2521.99C1156.42 2421.23 1081.76 2312.93 1006.89 2205.35C899.314 2050.79 795.467 1893.51 688.823 1738.23C632.166 1655.68 605.63 1562.44 581.246 1467.05C543.666 1321.68 501.783 1177.3 459.326 1033.14C449.357 999.077 432.073 966.875 416.295 934.959C385.456 873.997 393.632 834.55 450.719 797.112C471.374 782.866 494.253 772.153 518.421 765.411C605.773 743.537 601.9 745.903 628.508 821.999C583.469 849.898 539.506 876.579 496.332 904.406C492.387 906.988 493.033 916.527 491.742 922.049C520.429 903.904 546.247 884.683 574.719 870.267C592.676 861.233 612.495 856.518 632.596 856.497C642.493 856.497 656.047 870.267 661.283 881.025C710.983 981.434 755.09 1085.07 809.237 1183.11C865.392 1284.74 924.989 1385.15 952.17 1498.25C988.459 1649.44 1096.97 1750.21 1189.91 1862.38C1239.26 1921.98 1289.32 1981.44 1343.68 2036.3C1368.51 2059.89 1398.67 2077.11 1431.6 2086.51C1489.48 2103.58 1549.44 2120.57 1609.18 2123.08C1733.32 2128.89 1855.54 2155.91 1970.56 2202.98C2007.43 2217.68 2039.63 2244.36 2073.55 2266.17C2111.35 2290.41 2148.06 2316.37 2186.79 2339.03C2196.4 2344.7 2211.89 2340.47 2224.66 2340.76C2222.15 2325.91 2224.66 2306.26 2215.91 2297.22C2200.92 2281.52 2178.19 2273.55 2160.26 2260.21C2129.63 2237.34 2100.16 2213.09 2070.47 2189C2042.71 2166.48 2049.95 2144.38 2071.4 2122.94C2118.09 2153.64 2162.55 2187.49 2211.1 2213.38C2256.36 2237.69 2277.8 2264.88 2282.1 2320.96C2287.13 2386.59 2320.4 2449.56 2335.18 2515.04C2347.1 2565.95 2353.28 2618.03 2353.61 2670.31C2352.75 2861.3 2345.72 3052.23 2345.65 3243.22C2345.65 3333.73 2365.58 3424.89 2359.35 3514.54C2352.17 3616.54 2334.26 3717.51 2305.92 3815.76C2275.08 3921.98 2264.53 4028.42 2261.38 4137.36C2260.73 4157.44 2250.33 4177.31 2242.3 4204.71C2263.82 4226.94 2300.32 4211.23 2334.03 4208.22C2336.75 4208.22 2343.42 4178.53 2338.12 4173.65C2301.54 4139.65 2313.59 4095.26 2307.71 4054.52C2298.82 3992.05 2318.61 3935.97 2336.4 3877.3C2359.78 3800.06 2382.44 3722.6 2389.83 3640.19C2396.57 3565.24 2401.59 3492.38 2395.78 3416.71C2386.17 3292.06 2387.03 3166.55 2385.67 3041.32C2385.02 2985.67 2391.26 2929.94 2391.83 2874.21C2393.05 2750.64 2392.69 2626.92 2392.98 2503.28C2392.98 2468.28 2396.06 2432.99 2392.98 2398.2C2387.24 2331.79 2432.14 2301.31 2479.47 2275.42C2524.15 2250.96 2572.71 2233.25 2621.04 2211.73C2625.17 2220.29 2630.14 2228.41 2635.89 2235.97C2662.35 2264.66 2647.58 2283.67 2622.98 2302.96C2611.11 2312.62 2601.1 2324.36 2593.43 2337.6C2589.42 2344.27 2592.21 2354.96 2591.93 2363.78C2601.9 2363.78 2614.73 2367.29 2621.26 2362.42C2641.27 2347.71 2658.05 2328.49 2677.84 2313.43C2682.2 2310.34 2687.15 2308.16 2692.38 2307.04C2697.6 2305.92 2703.01 2305.87 2708.25 2306.9C2797.76 2334.09 2888.05 2359.76 2975.76 2392.18C3043.53 2417.21 3112.6 2442.89 3165.67 2496.25C3220.6 2551.54 3246.85 2619.82 3263.63 2694.63C3277.48 2756.09 3298.2 2816.05 3317.93 2876.01C3362.32 3010.77 3407.93 3145.18 3453.26 3279.65C3462.94 3308.34 3460.43 3328.85 3427.08 3341.62C3334.56 3376.91 3243.05 3414.85 3150.97 3451.42C3137.84 3457.59 3123.93 3460.89 3101.27 3467.85ZM1627.32 2589.2C1805.04 2792.02 1852.37 3033.86 1877.62 3286.18C1888.16 3275.35 1894.18 3264.09 1893.68 3253.12C1891.46 3200.69 1886.51 3148.33 1884.21 3095.83C1876.33 2924.49 1829.78 2767.57 1715.61 2635.1C1694.02 2610.14 1670.28 2590.56 1627.32 2589.2ZM2817.84 3743.33L2804.43 3742.9C2769.28 3834.63 2730.99 3924.35 2663.86 3998.44C2596.33 4072.48 2513.88 4131.39 2421.95 4171.28C2426.97 4184.12 2431.28 4195.17 2433.93 4202.12C2478.47 4182.83 2519.99 4168.13 2558.51 4147.47C2611.5 4118.78 2668.66 4093.04 2712.12 4053.09C2781.91 3988.54 2810.52 3899.89 2822.93 3807.01C2825.3 3786.43 2819.41 3764.63 2817.48 3743.33H2817.84ZM1412.24 2433.49C1448.1 2392.04 1461.44 2291.56 1443.01 2267.6L1412.24 2433.49Z" fill="black"/>
<path d="M1570.02 4314.51C1635.86 4335.38 1701.41 4355.68 1766.67 4376.91C1867.08 4409.69 1965.26 4451.71 2072.12 4461.68C2092.13 4463.48 2112.21 4465.05 2136.09 4467.06C2138.39 4495.25 2140.54 4523.08 2143.76 4563.1L2070.18 4503.71L2063.01 4509.23C2070.18 4519.85 2075.13 4532.26 2084.1 4540.65C2107.4 4562.59 2132.08 4583.11 2156.96 4603.19C2161.19 4606.63 2169.37 4605.34 2175.68 4606.2C2177.46 4597.55 2177.94 4588.67 2177.11 4579.88C2171.02 4554.7 2162.27 4530.25 2156.03 4505.07C2149.36 4478.47 2160.98 4471.01 2188.01 4470.22C2333.6 4466.06 2479.62 4464.55 2624.49 4451.71C2690.54 4445.83 2754.51 4415.85 2819.35 4396.85C2828.17 4394.26 2836.63 4390.11 2849.11 4385.16C2846.03 4441.46 2844.23 4494.32 2840.07 4546.96C2829.89 4675.48 2817.27 4803.79 2808.3 4932.39C2801.56 5028.56 2799.27 5125.03 2794.39 5221.28C2792.88 5251.04 2790.59 5280.95 2786.14 5310.35C2765.92 5444.83 2782.63 5576.29 2815.62 5706.9C2851.75 5854.13 2876.4 6003.95 2889.34 6155.01C2893.79 6202.49 2901.96 6249.54 2907.7 6296.87C2911 6323.91 2903.33 6336.46 2870.7 6336.32C2778.83 6335.96 2686.88 6340.62 2594.94 6343.49C2590.19 6344.19 2585.39 6344.43 2580.6 6344.21C2560.16 6340.76 2531.04 6353.39 2525.38 6319.97C2519.49 6284.82 2549.19 6278.37 2572.35 6273.2C2630.94 6260.08 2690.11 6254.41 2748.13 6283.75C2766.13 6262.8 2761.25 6249.75 2735.51 6244.01C2676.63 6230.89 2617.75 6225.29 2559.44 6247.46C2533.05 6257.5 2525.02 6245.09 2518.42 6220.49C2484.14 6092.75 2447.2 5965.74 2412.35 5838.15C2381.27 5724.4 2351.24 5610.36 2322.27 5496.04C2317.11 5475.74 2319.19 5453.01 2320.76 5431.85C2332.49 5272.12 2329.49 5111.65 2311.8 4952.47C2309.22 4928.8 2304.05 4905.35 2301.33 4881.68C2294.16 4819.78 2292.01 4758.32 2327.43 4697.21C2230.9 4714.43 2134.3 4762.41 2047.73 4673.4L2041.71 4681.43C2044.72 4700.3 2048.52 4719.02 2050.6 4737.95C2062.01 4839.22 2048.95 4938.41 2019.91 5035.09C1991.22 5129.69 1961.53 5224.15 1926.67 5316.52C1892.11 5407.61 1889.1 5499.77 1897.34 5594.73C1912.55 5769.44 1924.09 5944.51 1940.37 6119.22C1944.89 6168.71 1961.46 6217.05 1969.06 6266.39C1976.23 6312.08 1979.82 6358.34 1983.4 6404.52C1985.27 6428.48 1972.22 6439.38 1947.55 6444.33C1830.21 6467.93 1712.24 6462.12 1594.19 6455.88C1560.8 6455.19 1527.48 6452.43 1494.43 6447.63C1483.96 6445.76 1467.18 6427.62 1468.54 6419.44C1473.6 6386.85 1482.79 6355.04 1495.87 6324.77C1500.24 6315.09 1522.19 6308.85 1536.24 6308.56C1597.35 6307.27 1658.67 6308.56 1707.86 6358.05C1724.5 6332.73 1713.53 6319.68 1693.52 6307.84C1640.16 6276.57 1581.35 6279.16 1522.9 6279.16C1515.73 6279.16 1508.56 6280.38 1491.13 6282.03C1476 6204.5 1456.13 6127.47 1446.6 6049.22C1431.32 5923.78 1422.79 5797.62 1411.53 5671.75C1406.75 5615.91 1401.96 5560.04 1397.18 5504.14C1385.06 5358.26 1403.49 5214.96 1430.82 5072.03C1450.47 4968.96 1466.1 4865.11 1483.46 4761.62C1504.97 4634.67 1525.56 4507.73 1548.01 4381C1551.3 4360.41 1560.99 4340.9 1570.02 4314.51ZM2574.07 4497.9C2586.48 4559.37 2615.81 4609 2665.37 4644.07C2687.91 4659.02 2711.95 4671.59 2737.09 4681.58C2744.26 4684.66 2755.3 4678.49 2764.63 4676.56C2765.27 4673.04 2765.99 4669.39 2766.63 4665.94C2666.52 4650.16 2622.91 4571.92 2574.14 4497.9H2574.07Z" fill="url(#paint0_linear_53975_9833)"/>
<path d="M4327.71 3347.57C4317.1 3336.81 4305.7 3326.7 4296.16 3315.08C4281.82 3297.8 4271.2 3277 4254.92 3262.08C4234.98 3243.87 4212.54 3251.83 4204.72 3276.43C4199.1 3295.48 4187.33 3312.14 4171.26 3323.81C4155.19 3335.48 4135.72 3341.52 4115.86 3340.97C3950.05 3336.67 3784.31 3331.72 3618.5 3327.13C3594.61 3326.49 3570.73 3325.99 3546.78 3326.2C3524.26 3326.2 3512.79 3315.44 3514.15 3293.5C3519.31 3213.03 3525.91 3132.63 3530.21 3052.08C3531.36 3031.07 3523.04 3009.55 3524.12 2988.47C3532.58 2826.52 3542.26 2664.58 3551.58 2502.7C3553.52 2468.64 3556.46 2434.64 3557.11 2400.57C3558.18 2342.77 3594.47 2299.09 3651.42 2288.69C3779.5 2265.24 3908.31 2277.29 4037.04 2279.44C4177.82 2281.8 4318.68 2280.73 4459.46 2282.23C4531.18 2283.02 4602.9 2282.74 4673.75 2289.41C4735.01 2295.1 4795.72 2305.73 4855.27 2321.18C4934.16 2341.69 4943.41 2362.85 4940.61 2430.55C4935.16 2560.15 4923.19 2689.61 4913.29 2819.06C4900.74 2983.09 4886.68 3146.97 4874.99 3311.07C4871.19 3365.29 4871.48 3366.79 4817.62 3365.36C4730.48 3363.14 4643.34 3361.99 4556.28 3360.55C4532.76 3360.12 4511.53 3357.26 4499.26 3332.44C4495.68 3325.27 4483.41 3315.59 4477.75 3316.95C4440.31 3325.7 4434.72 3299.81 4424.89 3274.49C4417.03 3257.06 4407.42 3240.48 4396.2 3225C4382.51 3203.49 4363.5 3196.82 4341.2 3211.09C4318.89 3225.36 4312.87 3243.29 4323.55 3269.4C4332.81 3291.99 4336.39 3316.88 4342.49 3340.69L4327.71 3347.57ZM4126.26 2683.94C4186 2759.89 4227.09 2784.35 4265.46 2768.64C4294.58 2756.88 4335.17 2697.57 4331.44 2672.25C4325.63 2633.16 4279.95 2589.06 4238.21 2582.74C4193.32 2575.57 4156.6 2600.75 4128.55 2659.05C4097.79 2638.76 4092.7 2662.5 4094.2 2683.58C4095.67 2705.93 4101.85 2727.71 4112.35 2747.49C4145.62 2806.94 4253.77 2843.09 4321.98 2772.73C4329.15 2765.56 4331.44 2753.51 4336.32 2744.04C4325.71 2747.41 4311.08 2747.41 4305.05 2754.66C4265.75 2801.71 4212.32 2795.11 4158.46 2755.38C4137.73 2739.74 4119.16 2720.52 4126.26 2683.94Z" fill="#B3B3B3"/>
<path d="M3051.42 1244.72C3056.59 1370.31 3006.53 1485.63 2984.73 1605.98C2974.33 1663.36 2959.84 1719.66 2949.8 1776.96C2917.67 1960.78 2815.9 2091.46 2645.36 2163.39C2574.72 2193.09 2497.91 2211.23 2422.17 2224.21C2380.96 2229.8 2339.01 2223.58 2301.18 2206.28C2213.33 2166.19 2126.26 2122.23 2066.38 2040.61C2059.21 2030.49 2041.42 2028.63 2031.02 2019.95C1943.1 1947.37 1885.94 1856.64 1875.61 1741.25C1865.57 1629.72 1858.47 1517.91 1850.37 1406.24C1846.35 1351.52 1839.54 1296.79 1840.47 1242.14C1841.87 1201.91 1848.41 1162.02 1859.9 1123.44C1882.93 1042.26 1911.4 962.574 1935.07 881.601C1961.89 789.727 1995.67 702.3 2074.63 641.696C2104.1 618.96 2136.88 599.524 2176.61 620.179C2197.41 630.937 2206.09 617.167 2210.53 601.675C2218.64 573.561 2238.22 561.01 2264.32 565.815C2304.61 573.593 2344.37 583.893 2383.37 596.655C2437.16 614.083 2488.94 638.612 2543.59 652.023C2583.25 661.849 2626.78 654.892 2667.3 662.566C2693.84 667.587 2724.18 679.492 2741.96 698.427C2776.39 735.363 2812.82 764.983 2862.38 776.889C2870.41 779.202 2878.27 782.078 2885.9 785.496C2975.48 820.639 2989.53 912.226 2915.45 973.834C2906.48 981.006 2901.1 993.414 2894.51 1003.38C2906.34 1010.05 2917.53 1020.67 2930.36 1022.75C3032.71 1039.67 3036.51 1042.69 3046.98 1147.97C3049.85 1180.32 3049.92 1212.59 3051.42 1244.72ZM2129.2 1762.33C2136.88 1777.25 2140.46 1788.51 2147.49 1796.97C2169.01 1822.65 2194.54 1845.1 2212.76 1872.57C2267.84 1955.62 2340.2 2002.17 2442.97 1994.49C2492.6 1990.69 2535.13 1974.34 2568.76 1936.54C2594.87 1907.21 2622.55 1879.16 2648.66 1849.97C2662 1834.98 2673.4 1818.2 2685.66 1802.28C2495.61 1852.2 2318.4 1807.87 2129.2 1762.33ZM2144.77 1378.34C2193.32 1361.77 2238 1348 2281.53 1330.36C2289.64 1327.06 2298.89 1302.6 2295.02 1297.65C2272.21 1268.53 2250.7 1231.74 2219.5 1217.11C2144.77 1182.11 2076.78 1208.36 2016.61 1260.65C1986.49 1286.82 1983.04 1313.72 2018.04 1332.37C2056.84 1352.3 2100.8 1362.78 2144.77 1378.34ZM2744.83 1259.71C2676.99 1252.54 2628.58 1282.38 2588.84 1328.99C2569.7 1351.44 2574.93 1374.75 2602.26 1386.37C2626.19 1396.79 2651.31 1404.23 2677.06 1408.53C2742.75 1418.5 2803.07 1401.36 2862.45 1372.03C2891.14 1357.68 2889.56 1344.92 2872.99 1327.63C2836.92 1289.62 2798.19 1255.84 2744.83 1259.71ZM2720.73 1058.89C2670.53 1050.43 2623.91 1069.8 2582.89 1102.72C2574.14 1109.89 2574.93 1128.68 2571.35 1142.16C2583.68 1143.09 2600.03 1149.33 2607.78 1144.03C2692.91 1084.79 2800.05 1102.93 2858.79 1148.04C2875.36 1160.88 2890.92 1174.94 2907.85 1187.13C2910.57 1188.93 2913.68 1190.05 2916.92 1190.4C2920.17 1190.75 2923.45 1190.32 2926.49 1189.14C2928.65 1186.74 2930.15 1183.81 2930.83 1180.65C2931.51 1177.5 2931.35 1174.22 2930.36 1171.14C2912.94 1145.17 2898.31 1114.62 2874.5 1096.12C2831.25 1062.55 2778.68 1054.23 2720.45 1058.39L2720.73 1058.89ZM2122.1 1017.08C2051.46 1012.42 2004.13 1047.63 1965.69 1098.41C1958.52 1108.24 1959.88 1124.95 1957.37 1138.5C1970.99 1132.93 1984.24 1126.49 1997.03 1119.21C2004.63 1114.33 2008.36 1103.65 2015.82 1098.41C2078.86 1054.16 2146.49 1042.9 2218.57 1073.96C2239.29 1082.85 2258.23 1096.26 2279.31 1103.79C2289.35 1107.38 2302.62 1102 2314.45 1100.71C2311.58 1088.14 2307.4 1075.9 2301.97 1064.2C2296.51 1057.68 2288.86 1053.37 2280.46 1052.08C2227.6 1039.46 2174.67 1028.13 2121.82 1016.58L2122.1 1017.08ZM2373.55 1259.5C2409.41 1370.09 2352.82 1472.01 2373.55 1574.64C2376.31 1573.19 2378.72 1571.15 2380.61 1568.67C2382.51 1566.2 2383.84 1563.34 2384.52 1560.29C2393.77 1483.48 2403.45 1406.74 2410.98 1329.78C2413.14 1303.32 2405.25 1279.01 2373.26 1259L2373.55 1259.5ZM2325.21 1618.1L2315.24 1612C2290.93 1621.83 2290.71 1646.14 2294.23 1667.66C2298.1 1691.76 2315.31 1702.37 2341.35 1700.08C2358.98 1697.99 2376.86 1699.33 2393.99 1704.02C2434.58 1717 2477.47 1707.97 2501.13 1673.04L2472.45 1674.76C2447.35 1675.98 2422.24 1677.99 2397.14 1678.2C2379.14 1678.2 2361.28 1674.04 2343.21 1675.55C2320.26 1677.56 2311.66 1668.38 2314.52 1646.86C2316.99 1636.82 2320.47 1627.07 2324.92 1617.74L2325.21 1618.1ZM2330.16 2025.62C2327.65 2030.42 2325.21 2035.3 2322.99 2039.96C2335.25 2046.42 2346.8 2056.1 2359.85 2058.97C2424.83 2073.31 2482.7 2050.29 2539.14 2021.31C2468.79 2023.75 2400.59 2061.98 2329.87 2025.26L2330.16 2025.62ZM2039.13 1378.12C2093.99 1417 2150 1418.07 2207.45 1409.68C2216.77 1408.32 2225.09 1399.93 2232.48 1395.34L2039.13 1378.12ZM2800.91 1422.73L2639.62 1431.13C2664.29 1463.47 2775.02 1458.31 2800.63 1422.38L2800.91 1422.73ZM2541.51 1626.78L2531.4 1629.07C2526.52 1646 2521.57 1662.85 2516.7 1679.78L2523.87 1685.95C2532.12 1677.06 2544.09 1669.38 2547.46 1658.91C2550.4 1649.51 2544.02 1637.25 2541.22 1626.42L2541.51 1626.78Z" fill="#F8BE9A"/>
<path d="M3185.03 1201.33C3171.33 1187.63 3159.79 1169.99 3143.51 1161.1C3088.93 1131.48 3077.6 1077.04 3062.32 1025.26C3060.75 1019.81 3075.59 1007.76 3084.63 1001.23C3151.11 953.323 3167.25 905.7 3144.66 831.254C3131.6 788.221 3094.02 772.873 3062.04 751.644C3038.51 736.081 3011.83 725.824 2982.5 711.409L3054.22 613.797L3047.05 606.625C2933.59 691.327 2814.32 676.409 2691.26 631.368C2767.92 598.592 2831.25 553.48 2869.4 480.109L2863.74 472.292C2856.14 475.708 2849.07 480.174 2842.72 485.56C2771.01 566.174 2675.84 590.344 2573.71 601.748C2501.99 609.78 2438.67 600.385 2378.85 554.125C2325.28 512.671 2265.47 513.388 2195.76 541.072C2189.16 483.695 2257.43 414.198 2362.07 365.141C2350.09 362.487 2336.68 355.028 2326.21 357.969C2256.93 377.692 2193.82 408.174 2159.25 476.452C2149.21 496.318 2138.24 499.115 2114.93 498.9C2041.78 498.111 1972.86 516.687 1922.15 574.852C1901.07 599.094 1895.62 628.643 1906.59 663.858C1949.62 572.27 2021.34 532.609 2119.81 535.334C2114.72 533.613 2109.62 531.677 2104.46 530.099C2099.3 528.521 2094.06 527.373 2088.9 526.011V515.037C2102.31 515.037 2120.74 509.587 2127.91 516.257C2139.96 527.445 2144.91 546.308 2154.45 565.027C2065.73 572.629 2003.84 613.438 1963.03 679.78C1940.8 717.937 1925.57 759.763 1918.07 803.283C1906.95 861.52 1868.51 896.52 1827.7 931.161C1821.46 936.54 1811.42 939.05 1807.62 945.505C1802.89 953.538 1802.82 964.367 1800.45 974.193C1809.13 975.341 1819.02 979.644 1826.27 976.919C1843.84 970.392 1860.12 960.638 1886.01 956.837L1792.2 1200.33C1767.1 1189.21 1749.96 1141.95 1771.26 1111.25C1791.7 1081.77 1788.69 1053.87 1782.81 1023.04C1750.89 855.926 1779.22 695.056 1838.82 539.064C1851.87 504.853 1879.12 475.017 1903.79 446.759C1915.13 433.778 1936.14 429.331 1952.78 421.155C1959.95 417.641 1967.12 414.485 1974.29 411.186L1971.35 403.081L1924.66 413.266C1939.87 374.895 1976.73 368.942 2023.13 372.887C2072.12 377.047 2068.67 431.411 2113.78 444.177C2130.35 382.928 2163.05 331.361 2231.69 312.642C2190.45 302.027 2163.84 322.324 2098.15 409.464C2066.16 347.139 2045.01 285.316 2077.49 221.198C2095.93 184.907 2121.67 147.325 2154.09 124.375C2200.41 90.5048 2252.27 64.95 2307.35 48.8529C2371.9 31.5682 2433.07 58.5352 2491.31 89.5902C2619.39 157.797 2694.77 268.892 2750.57 397.989C2757.74 414.987 2774.81 427.968 2787.29 442.815L2800.55 439.659C2800.55 425.889 2804.28 410.971 2799.98 398.42C2773.8 323.758 2739.81 253.185 2679.57 197.96L2685.16 187.489C2703.23 191.936 2721.52 195.45 2739.23 201.044C2817.55 225.716 2898.66 244.507 2973.32 277.57C3080.9 325.264 3166.96 403.512 3187.04 523.644C3194.93 570.047 3223.69 610.785 3217.45 660.989C3211.43 709.257 3216.3 758.816 3211.78 807.443C3208.56 841.438 3197.44 874.788 3190.27 908.354C3187.54 920.259 3184.46 932.021 3181.59 944.214L3196.58 948.732L3237.67 836.992L3245.42 837.996C3247.21 856.571 3252.59 875.792 3249.72 893.723C3234.95 989.111 3218.31 1084.28 3201.24 1179.39C3199.81 1187.35 3190.41 1193.73 3184.75 1200.9L3185.03 1201.33Z" fill="#341F14"/>
<path d="M449.862 614.226L491.601 520.989L501.785 522.208L515.34 598.447H533.413C535.78 581.88 543.31 564.165 539.796 548.96C524.161 482.618 518.28 418.285 546.322 352.589C555.645 331.072 549.191 303.245 551.629 278.43C553.494 258.563 557.869 238.911 561.096 219.188L574.364 218.686C578.81 228.44 585.695 237.836 587.344 248.02C605.13 355.099 624.566 461.963 638.049 569.615C644.145 618.672 643.786 671.244 604.844 711.192C593.781 722.657 579.754 730.825 564.323 734.788C504.941 747.554 449.575 767.063 405.684 811.458C385.818 831.611 368.247 816.263 350.891 807.513C278.815 771.749 219.989 713.976 182.928 642.555C139.037 561.081 87.3999 483.838 40.2814 404.012C33.1096 391.82 32.3924 375.826 35.7631 358.111C102.03 405.949 153.452 463.182 186.37 544.585L222.588 496.747C168.656 417.855 117.45 345.56 68.8967 271.401C54.5531 249.383 41.0703 223.276 60.5058 195.664C79.3676 212.016 101.815 225.643 116.374 245.151C155.532 297.651 191.678 352.732 228.11 406.953C237.532 423.024 246.033 439.619 253.57 456.655L305.35 409.607C230.979 322.968 158.4 235.827 126.056 123.441C123.115 113.185 129.857 100.132 132.152 88.4414C143.842 91.1668 161.341 90.0193 166.361 97.4065C190.602 132.55 211.257 170.131 233.561 206.709C270.639 267.528 308.004 328.204 346.516 391.031L390.91 350.437C352.899 266.309 288.138 193.871 270.567 100.921L284.911 91.9557C298.104 105.712 310.37 120.327 321.63 135.705C378.431 224.065 434.395 312.784 489.522 401.861C508.455 432.127 498.414 474.012 478.333 503.704C458.252 533.397 446.132 570.117 430.641 603.754L449.862 614.226ZM410.991 684.584C406.401 632.012 401.954 580.947 397.436 528.878C359.282 564.021 366.956 660.916 411.134 684.225L410.991 684.584Z" fill="#F8BE9A"/>
<path d="M3145.3 3562.95C3210.35 3562.95 3272.03 3562.38 3333.7 3562.95C3382.47 3563.62 3431.24 3565.44 3480.01 3568.4C3484.44 3569.05 3488.59 3570.94 3491.99 3573.86C3495.39 3576.77 3497.89 3580.59 3499.21 3584.87C3500.52 3589.15 3500.59 3593.72 3499.42 3598.04C3498.24 3602.36 3495.86 3606.26 3492.56 3609.28C3477.14 3622.26 3458.56 3631.37 3442.93 3644.14C3435.76 3649.73 3433.03 3660.35 3428.59 3668.67C3437.77 3672.75 3447.59 3681.07 3456.13 3679.93C3471.55 3678.21 3486.33 3672.74 3499.16 3664C3565.5 3613.8 3645.32 3608.85 3722.41 3600.17C3811.15 3590.05 3900.4 3585.26 3989.71 3585.83C4014.38 3585.83 4045.22 3607.85 4062.21 3628.86C4113.42 3691.62 4109.26 3705.96 4031.8 3729.27C3899.84 3769.43 3767.45 3808.74 3633.77 3842.37C3541.83 3865.47 3447.3 3879.24 3354.07 3894.59C3340.66 3896.81 3317.28 3888.56 3311.04 3877.95C3254.31 3777.54 3200.31 3675.48 3145.73 3573.78C3144.08 3571.92 3145.3 3567.83 3145.3 3562.95Z" fill="black"/>
<path d="M3115.54 3515.97L3357.08 3419.29C3360.58 3418.49 3363.95 3417.24 3367.13 3415.56C3429.45 3366.29 3500.59 3373.11 3574.32 3375.9C3745.87 3382.43 3917.7 3381.86 4089.47 3384.44C4103.72 3384.66 4117.93 3386.15 4131.92 3388.88C4144.69 3391.39 4167.78 3397.13 4167.78 3400.22C4166.56 3418.22 4165.49 3441.53 4154.08 3452.72C4081.22 3524.8 3991.5 3557.5 3889.3 3554.99C3835.66 3553.7 3781.73 3550.54 3728.51 3548.18C3532.2 3539.57 3335.88 3530.94 3139.57 3522.28C3131.42 3520.76 3123.39 3518.65 3115.54 3515.97Z" fill="#B3B3B3"/>
<path d="M1726.44 6723.82L1756.13 6700.87C1748.45 6692.55 1742.22 6681.15 1732.68 6676.56C1713.78 6666.52 1693.43 6659.5 1672.36 6655.76C1650.13 6652.75 1627.54 6656.26 1615.92 6682.72C1611.9 6691.76 1598.99 6697.07 1587.23 6699.58C1626.32 6632.02 1685.92 6602.68 1762.94 6600.82C1819.9 6599.59 1876.73 6594.67 1933.06 6586.12C1956.94 6582.39 1966.55 6590.06 1974.15 6607.63C1978.93 6618.52 1982.21 6630 1983.9 6641.77C1992.08 6702.09 2000.69 6762.33 2005.99 6822.87C2007.14 6836.14 1998.82 6856.36 1988.71 6863.17C1962.25 6880.53 1933.34 6897.38 1903.08 6905.06C1804.97 6929.73 1706 6951.46 1606.88 6971.83C1558.33 6981.87 1513.65 6977.93 1479.51 6931.02C1463.66 6909.51 1434.47 6897.24 1409.09 6879.17C1447.31 6850.48 1484.6 6822.22 1523.12 6795.61C1525.56 6793.89 1540.47 6804.36 1543.77 6811.75C1545.85 6816.48 1535.81 6825.59 1534.09 6833.27C1532 6845.51 1530.64 6857.87 1530 6870.27C1540.47 6864.47 1553.53 6860.95 1560.77 6852.42C1571.38 6840.01 1577.77 6823.73 1587.38 6806.95C1606.02 6809.02 1630.41 6803.07 1625.82 6838.86C1625.24 6843.31 1635.36 6853.85 1637.94 6853.2C1647.33 6850.26 1660.03 6846.03 1663.33 6838.22C1667.27 6829.03 1667.27 6812.54 1661.46 6805.94C1650.77 6793.96 1633.71 6787.94 1621.01 6777.25C1613.84 6771.3 1610.11 6761.33 1604.88 6753.23C1613.98 6749.64 1623.67 6742.04 1631.98 6743.33C1650.46 6747.15 1668.57 6752.52 1686.13 6759.39C1696.6 6762.91 1706.71 6767.79 1716.97 6772.09C1720.99 6760.4 1725.5 6748.78 1728.73 6736.87C1729.11 6732.05 1728.62 6727.19 1727.3 6722.53L1726.44 6723.82Z" fill="black"/>
<path d="M2881.09 4270.04C2885.9 4331.44 2879.94 4336.89 2828.52 4355.1C2663.57 4413.7 2492.17 4418.15 2320.12 4423.02C2166.57 4427.4 2015.75 4406.1 1866.79 4374.76C1794.35 4359.48 1725.86 4325.34 1655.43 4300.17C1625.24 4289.41 1595.12 4278 1564.14 4269.9C1543.2 4264.45 1537.24 4253.98 1541.19 4234.04C1543.27 4223.57 1543.2 4212.52 1544.42 4202.05C1547.5 4174.15 1561.05 4166.19 1588.67 4174.65C1703.41 4209.94 1816.87 4250.32 1933.56 4276.93C2152.75 4326.32 2378.25 4341.61 2602.11 4322.26C2648.15 4318.53 2693.62 4306.91 2739.23 4298.3C2784.85 4289.69 2831.89 4279.87 2881.09 4270.04Z" fill="black"/>
<path d="M2855.85 6924.21C2744.69 6838.14 2622.62 6803.07 2485 6862.67L2478.25 6854.71C2485.43 6833.63 2492.6 6812.4 2500.49 6791.53C2511.39 6762.84 2523.22 6734.15 2534.05 6705.46C2552.48 6656.62 2568.69 6606.77 2589.92 6559.15C2595.51 6546.6 2615.02 6537.99 2629.94 6532.4C2701.08 6505.79 2774.81 6506.08 2848.53 6518.06C2883.46 6523.65 2918.1 6565.46 2923.41 6602.18C2935.67 6687.96 2904.11 6843.52 2855.85 6924.21ZM2790.23 6741.75C2815.97 6710.27 2811.74 6700.58 2777.1 6687.03C2709.4 6660.64 2648.01 6694.78 2583.89 6703.02C2582.7 6703.2 2581.57 6703.65 2580.57 6704.33C2579.58 6705.02 2578.75 6705.92 2578.16 6706.97C2575.22 6716.51 2572.92 6726.26 2570.41 6735.66C2583.03 6735.66 2598.09 6740.68 2607.78 6735.66C2670.24 6702.52 2730.99 6688.97 2790.23 6741.75ZM2608.57 6665.87C2657.4 6628.86 2726.61 6621.84 2766.85 6646.15C2776.46 6651.96 2796.39 6655.47 2801.92 6650.09C2811.17 6641.13 2812.53 6624.13 2817.84 6608.64C2791.52 6608.64 2772.73 6612.8 2756.73 6607.85C2706.53 6592.29 2660.49 6606.92 2614.09 6621.33C2584.32 6630.59 2583.18 6639.98 2608.57 6665.87ZM2709.9 6550.19C2709.26 6547.03 2708.68 6543.8 2708.11 6540.58C2674.83 6548.61 2640.77 6554.49 2608.78 6566.11C2599.67 6569.48 2589.06 6592.21 2592.28 6601.47C2600.1 6624.06 2613.8 6605.99 2625.78 6601.47C2649.44 6592.07 2673.61 6579.95 2698.28 6578.16C2719.8 6576.29 2741.31 6588.27 2763.55 6590.42C2768.94 6590.42 2774.28 6589.3 2779.22 6587.12C2784.16 6584.95 2788.59 6581.78 2792.23 6577.8C2797.9 6571.34 2797.97 6558.86 2797.9 6549.11C2797.9 6546.17 2788.79 6540.43 2784.27 6540.86C2759.67 6542.87 2734.93 6546.82 2710.19 6550.19H2709.9Z" fill="black"/>
<path d="M2515.02 7103.67L2515.02 7103.67C2487.9 7097.19 2468.18 7086.09 2456.18 7069.83C2444.19 7053.57 2439.85 7032.09 2443.68 7004.75C2444.99 6995.43 2445.79 6985.99 2446.58 6976.58C2446.9 6972.86 2447.21 6969.14 2447.55 6965.44C2448.77 6952.36 2450.38 6939.43 2453.78 6926.99L2453.78 6926.99C2455.59 6920.37 2459.76 6912.65 2464.96 6906.22C2470.17 6899.77 2476.35 6894.71 2482.1 6893.28C2517.86 6884.52 2554.3 6878.38 2590.78 6872.23C2604.45 6869.93 2618.13 6867.62 2631.77 6865.18C2712.22 6865.19 2779 6895.4 2836.07 6948.39C2839.54 6951.61 2841.99 6957.56 2843.22 6964.06C2844.45 6970.54 2844.44 6977.45 2843.1 6982.53C2824.81 7044.47 2778.81 7074.37 2718.58 7091.91L2718.72 7092.39L2718.58 7091.91C2651 7111.62 2584.68 7120.57 2515.02 7103.67Z" fill="#1B1818" stroke="#DDB0B0"/>
<path d="M4252.34 3299.02C4299.02 3371.6 4335.31 3444.11 4291.14 3531.89C4287.12 3539.93 4294.58 3553.41 4296.66 3564.67C4305.84 3558.22 4320.18 3553.55 4323.27 3544.88C4341.84 3492.45 4359.12 3439.45 4374.26 3385.87C4388.1 3337.17 4371.89 3291.92 4355.39 3242.43C4364.14 3248.96 4377.34 3253.69 4381.07 3262.37C4411.12 3332.58 4431.27 3403.51 4397.92 3479.47C4384.73 3509.37 4377.41 3541.79 4367.37 3572.7L4374.54 3580.95C4385.09 3572.42 4401.65 3565.89 4405.17 3555.13C4422.52 3501.2 4436.44 3446.19 4451.64 3391.61C4453.79 3383.65 4454.44 3374.25 4458.81 3368.3C4465.75 3361.72 4473.54 3356.1 4481.98 3351.59C4484.33 3359.82 4485.73 3368.29 4486.14 3376.83C4484.34 3404.16 4485.49 3432.7 4477.6 3458.24C4463.69 3503.21 4443.89 3546.38 4426.25 3590.13C4425.5 3591.78 4424.43 3593.26 4423.1 3594.49C4421.77 3595.72 4420.21 3596.68 4418.51 3597.3C4334.96 3623.98 4251.4 3650.95 4167.49 3676.2C4159.32 3678.63 4144.04 3671.46 4137.95 3663.93C4111.98 3631.8 4088.17 3597.88 4063.14 3563.95C4136.08 3523.5 4223.94 3490.44 4197.76 3369.38C4227.52 3400 4235.12 3428.33 4221.57 3458.52C4209.66 3485.06 4193.31 3509.66 4178.54 3536.27C4202.71 3538.78 4265.6 3477.03 4267.4 3439.45C4269.62 3393.83 4258.07 3347.57 4252.34 3299.02Z" fill="#F8BE9A"/>
<path d="M1309.47 7046.71C1306.89 6987.75 1337.22 6941.99 1382.41 6895.73C1411.09 6923.13 1436.77 6951.89 1466.6 6975.2C1485.32 6990.27 1507.1 7001.07 1530.43 7006.85C1553.76 7012.62 1578.06 7013.22 1601.65 7008.62C1680.54 6992.63 1758.57 6969.25 1837.31 6950.6C1891.46 6937.76 1946.18 6927.51 2000.83 6916.82C2007.32 6916.93 2013.72 6918.29 2019.69 6920.84C2017.61 6928.01 2017.75 6937.91 2012.95 6942.35C2002.64 6952.17 1990.44 6959.79 1977.09 6964.73C1881.28 6993.42 1786.18 7025.84 1688.5 7045.99C1629.04 7058.25 1565.5 7050.72 1503.82 7051.8C1490.77 7051.8 1476.36 7047.42 1464.81 7051.8C1413.6 7069.08 1363.26 7066.72 1309.47 7046.71Z" fill="#1B1818"/>
<path d="M1325.61 7115.28C1333.59 7114.08 1341.63 7113.33 1349.7 7113.05C1550.08 7117.07 1743 7078.12 1931.41 7012.64C1951.63 7005.47 1972.5 6997.73 1993.44 6996.58C2007.79 6995.79 2030.66 7001.67 2036.47 7012C2047.59 7031.79 2043.07 7055.46 2016.46 7063.92C1968.84 7079.13 1920.65 7092.61 1872.6 7106.96C1761.87 7138.66 1649.7 7158.09 1533.8 7154.44C1476.86 7152.64 1419.7 7158.52 1362.83 7155.94C1347.91 7155.3 1334.14 7136.22 1319.22 7125.53L1325.61 7115.28Z" fill="black"/>
<path d="M4784.41 3420.94C4682.14 3470.57 4589.98 3540.21 4473.59 3582.31C4477.75 3562.16 4477.46 3550.9 4482.26 3542.65C4502.71 3507.91 4514.15 3468.61 4515.54 3428.33C4515.97 3420.73 4531.53 3408.32 4540.64 3407.82C4582.17 3405.38 4623.91 3405.52 4665.57 3406.45C4704.44 3407.31 4743.32 3410.33 4782.19 3412.41C4782.9 3415.2 4783.69 3418.07 4784.41 3420.94Z" fill="#B3B3B3"/>
<path d="M2997.13 1699C3017.36 1609.71 3037.01 1517.83 3059.74 1426.46C3064.87 1408.23 3076.44 1392.48 3092.3 1382.14C3107.43 1373.25 3133.9 1367.79 3146.81 1375.54C3159.72 1383.29 3170.33 1411.4 3166.39 1426.25C3139.49 1528.95 3101.12 1627.42 3041.38 1716.14C3035.72 1724.68 3022.81 1728.33 3013.2 1734.22C3008.75 1724.46 3004.23 1714.56 2997.13 1699ZM3079.39 1579.44C3113.46 1561.66 3132.18 1480.9 3107.43 1455.15C3100.26 1447.98 3084.2 1449.2 3069.07 1445.83L3098.54 1502.2L3089.29 1507.08L3053.86 1489.36C3063.47 1523.36 3071.36 1551.18 3079.39 1579.44Z" fill="#F8BE9A"/>
<path d="M2866.11 6487.51C2792.31 6453.8 2721.74 6476.89 2650.95 6489.73C2630.66 6493.46 2608.5 6502.93 2602.47 6468.71C2596.45 6434.5 2606.56 6405.96 2634.82 6403.02C2700.65 6395.85 2766.92 6392.33 2833.04 6389.89C2858 6388.96 2872.35 6403.59 2868.9 6431.56C2866.75 6448.92 2866.75 6466.63 2866.11 6487.51Z" fill="#AEAEAE"/>
<path d="M2959.48 977.92C2987.17 929.58 3006.74 884.109 2987.09 829.96C2967.44 775.811 2914.44 767.205 2871.7 742.031C2956.4 687.379 3077.53 764.909 3088.86 842.942C3096.25 893.003 3036.79 981.291 2959.48 977.92Z" fill="#341F14"/>
<path d="M1947.97 6499.48C1955.15 6536.49 1936.43 6548.61 1904.94 6550.69C1848.29 6554.42 1791.77 6558.87 1735.26 6563.1C1726.95 6563.49 1718.68 6564.49 1710.52 6566.11C1659.02 6577.73 1658.3 6577.3 1650.92 6528.39L1947.97 6499.48Z" fill="#AEAEAE"/>
<path d="M3184.53 1198.39C3178.87 1246.08 3173.27 1293.71 3167.89 1338.82L3071.5 1352.95C3075.45 1302.31 3079.46 1250.32 3083.62 1196.6C3121.49 1198.32 3153.05 1239.63 3185.18 1199.39L3184.53 1198.39Z" fill="#341F14"/>
<path d="M1814.36 1505.78C1808.37 1498.93 1803.29 1491.34 1799.23 1483.19C1779.51 1428.33 1761 1372.96 1741.35 1318.23C1728.66 1282.95 1743.94 1258.13 1770.04 1237.55C1787.33 1223.92 1808.48 1230.74 1809.77 1251.39C1815.22 1335.23 1818.95 1419.15 1823.33 1503.13L1814.36 1505.78ZM1799.3 1362.34C1793.56 1335.02 1788.69 1311.71 1782.02 1280.01C1774.85 1293.42 1764.02 1304.68 1764.23 1315.87C1764.66 1336.45 1771.62 1356.82 1799.3 1362.49V1362.34Z" fill="#F8BE9A"/>
<path d="M2881.59 6987.83C2869.12 7106.74 2792.38 7174.3 2686.59 7158.74C2777.53 7129.91 2838.06 7073.03 2881.59 6987.83Z" fill="black"/>
<path d="M3108.51 813.68C3142.65 860.944 3144.37 896.804 3115.11 942.777C3092.23 979.211 3062.9 994.631 3025.03 987.674C3076.31 941.343 3114.89 889.847 3108.51 813.68Z" fill="#54443C"/>
<path d="M2977.27 3509.45C2988.45 3468.52 2999.62 3427.52 3010.76 3386.45H3024.17C3035.28 3418.65 3046.4 3450.99 3059.31 3488.15L2989.17 3518.48L2977.27 3509.45Z" fill="black"/>
<path d="M2409.19 2281.08C2323.84 2337.1 2378.92 2419.72 2358.13 2487.43C2339.23 2421.82 2331.57 2353.48 2335.46 2285.32C2335.46 2280.73 2348.44 2273.12 2355.4 2273.2C2370.6 2272.98 2385.74 2277.14 2409.19 2281.08Z" fill="#F8BE9A"/>
<path d="M2977.84 671.602C2945.57 719.654 2821.64 730.341 2782.27 683.005L2977.84 671.602Z" fill="#54443C"/>
<path d="M2164.42 529.308C2161.69 483.694 2198.05 431.194 2243.31 413.551L2164.42 529.308Z" fill="#54443C"/>
<path d="M1727.51 6723.03L1636.57 6711.42C1668.56 6677.49 1703.56 6685.81 1726.51 6723.89L1727.51 6723.03Z" fill="#FFFAFA"/>
<path d="M2498.69 7137.08L2584.04 7165.77C2552.91 7164.69 2516.55 7183.27 2494.25 7147.98C2495.75 7144.61 2497.26 7140.81 2498.69 7137.08Z" fill="black"/>
<path d="M1627.32 2589.2C1670.35 2590.56 1694.02 2610.14 1715.61 2635.1C1829.78 2767.57 1876.33 2924.49 1884.22 3095.76C1886.66 3148.26 1891.39 3200.62 1893.68 3253.05C1894.19 3264.02 1888.16 3275.28 1877.62 3286.11C1852.37 3033.8 1805.33 2792.03 1627.32 2589.2ZM1840.76 2958.35L1849.58 2956.7C1838.4 2877.93 1807.92 2803.16 1760.86 2739.02C1787.49 2812.18 1814.13 2885.29 1840.76 2958.35Z" fill="black"/>
<path d="M2817.48 3743.33C2819.42 3764.84 2825.3 3786.36 2822.57 3807.02C2810.16 3900.25 2781.55 3988.9 2711.77 4053.09C2668.31 4093.04 2611.36 4118.93 2558.15 4147.48C2519.71 4168.13 2478.11 4182.83 2433.57 4202.13C2430.92 4194.95 2426.4 4184.12 2421.6 4171.29C2513.53 4131.39 2595.97 4072.48 2663.5 3998.44C2730.63 3924.35 2768.93 3834.63 2804.07 3742.9L2817.48 3743.33ZM2544.52 4131.48C2697.57 4101.79 2802.71 3914.1 2786 3830.25C2739.81 3960.28 2652.17 4050.8 2544.52 4131.48Z" fill="black"/>
<path d="M1412.24 2433.49L1443.01 2267.6C1461.44 2291.56 1448.17 2392.04 1412.24 2433.49Z" fill="black"/>
<path d="M2574.14 4497.9C2622.77 4571.91 2666.51 4650.16 2766.56 4665.94C2765.91 4669.45 2765.2 4673.11 2764.55 4676.55C2755.23 4678.49 2744.18 4684.66 2737.01 4681.58C2711.87 4671.59 2687.84 4659.02 2665.29 4644.07C2615.74 4609.07 2586.55 4559.36 2574.14 4497.9Z" fill="black"/>
<path d="M2129.2 1762.33C2318.39 1807.87 2495.61 1852.19 2685.66 1802.06C2673.4 1817.98 2661.99 1834.77 2648.66 1849.76C2622.55 1879.09 2594.87 1907.13 2568.76 1936.32C2535.13 1974.12 2492.6 1990.47 2442.97 1994.27C2340.2 2002.16 2267.83 1955.62 2212.75 1872.35C2194.54 1844.88 2168.72 1822.14 2147.49 1796.75C2140.46 1788.51 2136.88 1777.25 2129.2 1762.33ZM2613.01 1856.86L2210.53 1818.63C2228.32 1839.07 2248.11 1862.45 2270.77 1865.61C2360.28 1878.16 2450.5 1886.69 2540.72 1891.14C2561.88 1892.14 2584.11 1871.2 2613.01 1856.86ZM2536.78 1918.54L2266.61 1896.16C2307.49 1962.29 2358.27 1972.83 2455.09 1966.8C2486.21 1964.87 2523.44 1963.36 2536.85 1918.54H2536.78Z" fill="black"/>
<path d="M2144.77 1378.34C2100.8 1362.77 2056.84 1352.3 2018.04 1332.01C1983.04 1313.72 1986.49 1286.82 2016.61 1260.29C2076.78 1208 2144.77 1181.75 2219.5 1216.75C2250.69 1231.1 2272.21 1268.18 2295.02 1297.29C2298.89 1302.24 2289.64 1326.7 2281.53 1330C2238.22 1348 2193.32 1361.77 2144.77 1378.34ZM2071.61 1250.53C2051.25 1261.79 2020.05 1272.41 2030.52 1303.89C2039.2 1330.14 2068.82 1338.53 2097.93 1336.67C2088.9 1307.12 2080.58 1280.01 2071.61 1250.53ZM2219.35 1254.41C2208.17 1283.09 2197.84 1309.41 2186.29 1338.68C2216.27 1338.17 2250.41 1338.68 2260.09 1308.7C2269.2 1281.23 2241.44 1264.73 2219.35 1254.41ZM2190.67 1262.8C2174.6 1276.21 2160.47 1297.01 2144.48 1298.66C2132.43 1299.8 2118.09 1276.21 2102.81 1261.79C2091.77 1278.22 2102.81 1294.78 2116.72 1308.98C2133.44 1326.41 2153.66 1324.91 2171.59 1311.14C2189.52 1297.37 2202.28 1280.8 2190.67 1262.8Z" fill="black"/>
<path d="M2744.83 1259.71C2798.47 1256.2 2837.2 1289.98 2872.99 1327.42C2889.56 1344.7 2891.21 1357.54 2862.45 1371.81C2803.06 1401.22 2742.75 1418.29 2677.06 1408.32C2651.31 1404.02 2626.19 1396.58 2602.25 1386.16C2574.93 1374.75 2569.69 1351.44 2588.84 1328.78C2628.29 1282.02 2676.7 1252.54 2744.83 1259.71ZM2666.94 1294.21L2657.41 1287.61L2607.63 1356.25L2679.35 1388.52C2673.9 1349.43 2670.24 1321.61 2666.66 1293.85L2666.94 1294.21ZM2709.97 1290.12C2691.76 1296.15 2682.51 1314.94 2688.46 1336.67C2695.63 1363.49 2719.66 1372.53 2744.97 1366.43C2770.29 1360.34 2786.07 1344.92 2779.9 1323.04C2761.4 1328.71 2743.25 1340.18 2728.76 1336.6C2719.66 1334.01 2716.64 1308.55 2709.62 1289.76L2709.97 1290.12ZM2811.31 1296.65C2797.83 1332.51 2789.15 1355.96 2780.54 1379.27C2783.05 1382.14 2785.56 1385.08 2788.15 1387.95C2806.36 1374.39 2828.38 1363.42 2840.79 1345.71C2844.52 1339.61 2823.72 1316.23 2810.95 1296.29L2811.31 1296.65Z" fill="black"/>
<path d="M2720.44 1058.39C2778.68 1054.23 2831.25 1062.55 2873.92 1095.61C2897.73 1114.12 2912.36 1144.67 2929.79 1170.63C2930.77 1173.71 2930.93 1176.99 2930.25 1180.15C2929.57 1183.31 2928.08 1186.23 2925.92 1188.63C2922.87 1189.81 2919.59 1190.25 2916.35 1189.9C2913.11 1189.55 2909.99 1188.43 2907.27 1186.63C2890.34 1174.43 2874.78 1160.38 2858.22 1147.54C2799.77 1102.43 2692.62 1084.28 2607.2 1143.52C2599.31 1149.05 2583.1 1142.59 2570.77 1141.66C2574.36 1128.17 2573.57 1109.24 2582.32 1102.21C2623.63 1069.29 2670.31 1049.93 2720.44 1058.39ZM2594.79 1121.43L2715.57 1082.56C2675.48 1064.49 2610.14 1083.85 2594.79 1121.43Z" fill="black"/>
<path d="M2121.82 1016.58C2174.67 1028.12 2227.6 1039.46 2280.39 1051.58C2288.79 1052.87 2296.44 1057.18 2301.9 1063.7C2307.33 1075.4 2311.51 1087.63 2314.38 1100.2C2302.55 1101.5 2289.28 1106.87 2279.24 1103.29C2258.15 1095.76 2239.22 1082.35 2218.49 1073.45C2146.42 1042.4 2078.79 1053.66 2015.75 1097.91C2008.58 1103.14 2004.56 1113.83 1996.96 1118.71C1984.16 1125.98 1970.92 1132.43 1957.3 1138C1959.81 1124.45 1958.16 1107.73 1965.62 1097.91C2003.84 1047.13 2051.18 1011.92 2121.82 1016.58Z" fill="black"/>
<path d="M2373.26 1258.99C2405.25 1279 2413.14 1303.32 2410.55 1329.57C2403.38 1406.52 2393.34 1483.26 2384.09 1560.08C2383.41 1563.12 2382.08 1565.98 2380.18 1568.45C2378.29 1570.93 2375.88 1572.97 2373.12 1574.42C2352.53 1471.5 2409.12 1369.59 2373.26 1258.99Z" fill="#883E2F"/>
<path d="M2324.92 1617.74C2320.59 1626.94 2317.21 1636.55 2314.81 1646.43C2311.65 1667.44 2320.26 1676.91 2343.5 1675.12C2361.28 1673.61 2379.35 1677.92 2397.43 1677.77C2422.53 1677.77 2447.63 1675.55 2472.73 1674.33L2501.42 1672.61C2477.75 1707.54 2434.86 1716.57 2394.27 1703.59C2377.14 1698.9 2359.27 1697.56 2341.63 1699.65C2315.6 1701.94 2298.6 1691.33 2294.51 1667.23C2291 1645.71 2291.21 1621.4 2315.53 1611.57L2324.92 1617.74Z" fill="#883E2F"/>
<path d="M2329.87 2025.26C2400.87 2061.98 2468.79 2023.75 2538.86 2021.17C2482.13 2049.86 2424.11 2072.88 2359.56 2058.83C2346.51 2055.96 2334.96 2046.27 2322.7 2039.82C2324.92 2034.94 2327.36 2030.07 2329.87 2025.26Z" fill="#E49B7C"/>
<path d="M2038.84 1377.77L2232.48 1395.27C2225.31 1399.57 2216.77 1407.96 2207.45 1409.61C2149.57 1417.5 2093.7 1416.64 2038.84 1377.77Z" fill="#C47D65"/>
<path d="M2800.63 1422.38C2775.02 1458.24 2664.36 1463.47 2639.33 1430.77L2800.63 1422.38Z" fill="#C47D65"/>
<path d="M2541.22 1626.42C2543.73 1637.25 2550.4 1649.51 2547.46 1658.55C2544.09 1669.02 2532.11 1676.69 2523.87 1685.59L2516.7 1679.42C2521.57 1662.49 2526.52 1645.64 2531.4 1628.71L2541.22 1626.42Z" fill="#883E2F"/>
<path d="M411.133 684.225C366.955 660.916 359.282 563.95 397.579 528.52C402.097 580.589 406.83 631.654 411.133 684.225Z" fill="#883E2F"/>
<path d="M2790.22 6741.68C2730.99 6689.11 2670.24 6702.53 2607.78 6735.8C2598.09 6740.97 2583.03 6736.16 2570.41 6735.8C2572.92 6726.12 2575.22 6716.37 2578.16 6707.12C2578.75 6706.07 2579.58 6705.17 2580.57 6704.48C2581.56 6703.8 2582.7 6703.35 2583.89 6703.17C2647.94 6694.92 2709.4 6660.78 2777.1 6687.18C2812.03 6700.59 2815.97 6710.49 2790.22 6741.68Z" fill="#FFFAFA"/>
<path d="M2608.57 6665.87C2582.89 6639.98 2584.04 6630.59 2614.09 6621.33C2660.49 6606.99 2706.68 6592.29 2756.74 6607.85C2772.73 6612.8 2791.52 6608.64 2817.84 6608.64C2812.53 6624.13 2811.17 6641.13 2801.92 6650.09C2796.39 6655.47 2776.46 6651.96 2766.85 6646.15C2726.9 6621.84 2657.69 6628.86 2608.57 6665.87Z" fill="white"/>
<path d="M2710.19 6550.19C2734.93 6546.82 2759.68 6543.02 2784.49 6540.51C2789.01 6540.08 2798.12 6545.81 2798.12 6548.75C2798.12 6558.51 2798.12 6570.99 2792.45 6577.44C2788.81 6581.42 2784.37 6584.59 2779.43 6586.77C2774.5 6588.94 2769.16 6590.06 2763.76 6590.06C2741.75 6587.91 2719.66 6575.72 2698.5 6577.8C2673.83 6579.95 2649.66 6591.71 2626 6601.11C2613.73 6605.99 2600.32 6624.06 2592.5 6601.11C2589.28 6591.86 2599.67 6569.12 2609 6565.75C2640.98 6554.13 2675.05 6548.25 2708.33 6540.22C2708.97 6543.8 2709.55 6547.03 2710.19 6550.19Z" fill="white"/>
<path d="M3079.4 1579.44C3071.36 1551.19 3063.47 1523.36 3053.86 1489.36L3089.29 1507.08L3098.54 1502.2L3069.07 1445.83C3084.2 1449.2 3100.34 1447.84 3107.44 1455.15C3132.11 1480.9 3113.46 1561.66 3079.4 1579.44Z" fill="#883E2F"/>
<path d="M1799.3 1362.49C1771.62 1356.82 1764.66 1336.45 1764.23 1315.87C1764.23 1304.82 1774.92 1293.56 1782.02 1280.01C1788.69 1311.85 1793.56 1335.16 1799.3 1362.49Z" fill="#883E2F"/>
<path d="M1840.76 2958.35C1814.13 2885.24 1787.49 2812.13 1760.86 2739.02C1807.92 2803.16 1838.4 2877.93 1849.58 2956.7L1840.76 2958.35Z" fill="#201F22"/>
<path d="M2544.52 4131.48C2652.1 4050.8 2739.81 3960.28 2786 3830.25C2802.71 3914.1 2697.57 4101.79 2544.52 4131.48Z" fill="#201F22"/>
<path d="M2613.01 1856.86C2584.32 1871.2 2561.88 1892.14 2540.72 1891.14C2450.5 1886.69 2360.28 1878.16 2270.77 1865.61C2248.11 1862.45 2228.32 1839.07 2210.53 1818.63L2613.01 1856.86Z" fill="white"/>
<path d="M2536.85 1918.54C2523.51 1963.36 2486.65 1964.87 2455.16 1966.81C2358.34 1972.83 2307.57 1962.29 2266.69 1896.16L2536.85 1918.54Z" fill="#5F0004"/>
<path d="M2071.62 1250.53C2080.58 1280.01 2088.9 1307.12 2097.94 1336.6C2068.82 1338.46 2039.2 1330.07 2030.52 1303.82C2020.05 1272.41 2051.25 1261.79 2071.62 1250.53Z" fill="white"/>
<path d="M2219.35 1254.4C2241.44 1264.73 2269.2 1280.87 2260.09 1308.69C2250.41 1338.39 2216.27 1338.17 2186.29 1338.67C2197.84 1309.41 2208.17 1282.95 2219.35 1254.4Z" fill="white"/>
<path d="M2190.67 1262.79C2202.28 1280.8 2189.23 1297.43 2171.59 1310.92C2153.95 1324.4 2133.44 1326.19 2116.73 1308.77C2103.03 1294.42 2091.77 1278 2102.81 1261.57C2118.09 1275.92 2132.43 1299.59 2144.48 1298.44C2160.47 1297 2174.6 1276.21 2190.67 1262.79Z" fill="black"/>
<path d="M2666.66 1293.85C2670.24 1321.61 2673.83 1349.44 2678.92 1388.16L2607.2 1355.89L2656.97 1287.25L2666.66 1293.85Z" fill="white"/>
<path d="M2709.62 1289.76C2716.79 1308.55 2719.66 1334.01 2728.41 1336.24C2742.75 1339.82 2761.04 1328.35 2779.54 1322.68C2785.71 1344.7 2769.22 1360.19 2744.62 1366.07C2720.02 1371.95 2695.42 1363.13 2688.1 1336.31C2682.15 1314.58 2691.4 1295.57 2709.62 1289.76Z" fill="black"/>
<path d="M2810.95 1296.29C2823.43 1316.23 2844.52 1339.32 2840.43 1345.35C2828.02 1363.06 2806.01 1374.03 2787.79 1387.59C2785.21 1384.72 2782.7 1381.78 2780.19 1378.91C2788.79 1355.6 2797.47 1332.36 2810.95 1296.29Z" fill="white"/>
<path d="M2594.8 1121.43C2610.14 1083.85 2675.48 1064.49 2715.57 1082.56L2594.8 1121.43Z" fill="#341F14"/>
<path d="M2145.99 1306.33C2161.83 1306.33 2174.68 1293.49 2174.68 1277.64C2174.68 1261.8 2161.83 1248.95 2145.99 1248.95C2130.14 1248.95 2117.3 1261.8 2117.3 1277.64C2117.3 1293.49 2130.14 1306.33 2145.99 1306.33Z" fill="white" stroke="black" stroke-width="3" stroke-miterlimit="10"/>
<path d="M2734.07 1342.19C2749.92 1342.19 2762.76 1329.34 2762.76 1313.5C2762.76 1297.66 2749.92 1284.81 2734.07 1284.81C2718.23 1284.81 2705.39 1297.66 2705.39 1313.5C2705.39 1329.34 2718.23 1342.19 2734.07 1342.19Z" fill="white" stroke="black" stroke-width="3" stroke-miterlimit="10"/>
<path d="M2411.77 999.508C2411.77 999.508 2425.62 1022.82 2430.64 1077.11L2435.66 1131.4" fill="#E49B7C"/>
<ellipse cx="4190.45" cy="2679.44" rx="182" ry="166.5" fill="#B3B3B3"/>
<path d="M4270.45 2686.76L4242.49 2636.83H4202.46L4270.45 2758.24L4338.44 2636.83H4298.41L4270.45 2686.76Z" fill="black"/>
<path d="M4347.75 2636.83L4270.45 2774.87L4193.15 2636.83H4149.38L4270.45 2853.04L4391.52 2636.83H4347.75Z" fill="black"/>
<path d="M2852 485C2762.4 616.2 2569.33 622.333 2484 609C2494.67 617 2539.2 634.6 2632 641C2724.8 647.4 2817.33 539.667 2852 485Z" fill="#54443C" stroke="#54443C"/>
<path d="M2409.22 279.441C2275.76 248.16 2149.33 356.747 2102.8 414.951C2104.93 403.646 2123.01 366.499 2178.33 308.357C2233.66 250.214 2355.31 264.853 2409.22 279.441Z" fill="#54443C" stroke="#54443C"/>
<path d="M2667.85 409.339C2533.14 383.96 2411.62 498.004 2367.69 558.198C2369.32 546.81 2385.75 508.904 2438.46 448.384C2491.17 387.864 2613.35 397.137 2667.85 409.339Z" fill="#54443C" stroke="#54443C"/>
<path d="M2504 155.788C2626 203.388 2693.13 376.37 2711.44 456.91C2713.63 445.23 2711.61 400.489 2685.96 314.963C2660.31 229.437 2553.96 173.211 2504 155.788Z" fill="#54443C" stroke="#54443C"/>
<path d="M2436.85 309.339C2302.14 283.96 2180.62 398.004 2136.69 458.198C2138.32 446.81 2154.75 408.904 2207.46 348.384C2260.17 287.864 2382.35 297.137 2436.85 309.339Z" fill="#54443C" stroke="#54443C"/>
<path d="M3155.89 539.352C3139.75 403.23 2994.54 321.442 2923.95 297.563C2935.31 295.704 2976.39 300.027 3049.92 332.19C3123.45 364.353 3151.2 483.7 3155.89 539.352Z" fill="#54443C" stroke="#54443C"/>
<path d="M2159.85 511.339C2042.1 489.154 1935.86 588.845 1897.46 641.464C1898.89 631.51 1913.25 598.374 1959.33 545.47C2005.4 492.567 2112.21 500.673 2159.85 511.339Z" fill="#54443C" stroke="#54443C"/>
<path d="M2147.84 562.93C2013.88 597.05 1905.88 774.863 1868.63 859.505C1869.15 846.537 1881.64 798.351 1927.45 709.357C1973.25 620.364 2093.46 574.659 2147.84 562.93Z" fill="#54443C" stroke="#54443C"/>
<defs>
<linearGradient id="paint0_linear_53975_9833" x1="2150.9" y1="4314.51" x2="2150.9" y2="6461.4" gradientUnits="userSpaceOnUse">
<stop stop-color="#8A8A8A"/>
<stop offset="1" stop-color="#B9B0B0" stop-opacity="0.38"/>
</linearGradient>
</defs>
</svg>
